<svg xmlns="http://www.w3.org/2000/svg" width="27" height="27" viewBox="0 0 27 27">
  <g id="Argentine" transform="translate(0 -0.385)">
    <path id="Path_3481" data-name="Path 3481" d="M4,0H23a4,4,0,0,1,4,4V23a4,4,0,0,1-4,4H4a4,4,0,0,1-4-4V4A4,4,0,0,1,4,0Z" transform="translate(0 0.385)" fill="#4586ff" opacity="0.45"/>
    <g id="Group_1852" data-name="Group 1852" transform="translate(1.356 1.356)">
      <g id="Group_1851" data-name="Group 1851" transform="translate(0 0)">
        <g id="Group_1849" data-name="Group 1849">
          <path id="Path_2170" data-name="Path 2170" d="M-69.325,31.943a4.881,4.881,0,0,1-3.77,1.782H-87.724a4.888,4.888,0,0,1-4.542-3.088,4.794,4.794,0,0,1-.345-1.79V14.21a4.794,4.794,0,0,1,.345-1.79,4.9,4.9,0,0,1,1.339-1.881l3.039,2.177,5.347,8.024-2.842,2.793h6.062l8.23,5.569Z" transform="translate(92.611 -9.316)" fill="#fc9633"/>
          <path id="Path_2171" data-name="Path 2171" d="M-70.335,32.273a4.436,4.436,0,0,1-.484.723l-1.765-2.841-8.224-5.567h-6.057l2.84-2.792-5.343-8.022L-92.406,11.6a4.816,4.816,0,0,1,3.2-1.207l5.959,10.78,3.431-.69-.55,3.325,8.864,3.81Z" transform="translate(94.112 -10.392)" fill="#fff"/>
          <path id="Path_2172" data-name="Path 2172" d="M-72.252,15.267V29.891a4.894,4.894,0,0,1-.341,1.789,4.257,4.257,0,0,1-.291.583l-1.182-4.653L-83.054,23.8l.558-3.324-3.478.689-6.042-10.776H-77.2a4.96,4.96,0,0,1,4.6,3.086A4.894,4.894,0,0,1-72.252,15.267Z" transform="translate(96.661 -10.392)" fill="#1d83db"/>
        </g>
        <g id="Group_1850" data-name="Group 1850" transform="translate(12.822 1.491)">
          <path id="Path_2173" data-name="Path 2173" d="M-90.278,10.571l.652.593.766-.437-.363.8.652.594-.876-.1-.364.8-.178-.864-.877-.1.766-.436Z" transform="translate(92.255 -10.571)" fill="#fff"/>
          <path id="Path_2174" data-name="Path 2174" d="M-89.629,10.654l.652.594.766-.437-.363.8.652.594-.877-.1-.363.8-.179-.864-.876-.1.766-.437Z" transform="translate(97.016 -9.966)" fill="#fff"/>
          <path id="Path_2175" data-name="Path 2175" d="M-90.446,11.181l.652.593.766-.437-.364.8.652.594-.876-.1-.364.8-.178-.864-.877-.1.766-.437Z" transform="translate(91.033 -6.106)" fill="#fff"/>
          <path id="Path_2176" data-name="Path 2176" d="M-89.6,11.928l.652.593.766-.437-.364.8.652.594-.876-.1-.364.8-.178-.864-.877-.1.766-.437Z" transform="translate(97.196 -0.635)" fill="#fff"/>
          <path id="Path_2177" data-name="Path 2177" d="M-89.894,11.15l.339.31.4-.228-.19.419.34.31-.458-.051-.189.419-.093-.451-.458-.051.4-.228Z" transform="translate(97.129 -6.331)" fill="#fff"/>
        </g>
      </g>
    </g>
  </g>
</svg>
