<svg xmlns="http://www.w3.org/2000/svg" width="27" height="27" viewBox="0 0 27 27">
  <g id="Malaysia" transform="translate(0 -0.202)">
    <path id="Path_3488" data-name="Path 3488" d="M4,0H23a4,4,0,0,1,4,4V23a4,4,0,0,1-4,4H4a4,4,0,0,1-4-4V4A4,4,0,0,1,4,0Z" transform="translate(0 0.202)" fill="#4586ff" opacity="0.45"/>
    <g id="Group_1822" data-name="Group 1822" transform="translate(1.356 1.356)">
      <g id="Group_1821" data-name="Group 1821">
        <g id="Group_1819" data-name="Group 1819">
          <g id="Group_1818" data-name="Group 1818">
            <path id="Path_1773" data-name="Path 1773" d="M-68.2,27.2v.366H-92.611V27.2a4.815,4.815,0,0,1,.206-1.406h23.99A4.825,4.825,0,0,1-68.2,27.2Z" transform="translate(92.611 -22.268)" fill="#cb0202"/>
            <rect id="Rectangle_616" data-name="Rectangle 616" width="24.405" height="1.766" transform="translate(0.003 12.183)" fill="#fff"/>
            <rect id="Rectangle_617" data-name="Rectangle 617" width="24.405" height="1.766" transform="translate(0.003 13.926)" fill="#cb0202"/>
            <rect id="Rectangle_618" data-name="Rectangle 618" width="24.405" height="1.767" transform="translate(0.003 15.668)" fill="#fff"/>
            <path id="Path_1774" data-name="Path 1774" d="M-70.4,28.129a4.784,4.784,0,0,1-3.726,1.764H-88.745a4.784,4.784,0,0,1-3.726-1.764Z" transform="translate(93.636 -5.492)" fill="#fff"/>
            <path id="Path_1775" data-name="Path 1775" d="M-68.6,27.917a3.237,3.237,0,0,1-.131.4,4.578,4.578,0,0,1-.814,1.365h-22.1a4.557,4.557,0,0,1-.805-1.365c-.049-.133-.1-.258-.14-.4Z" transform="translate(92.794 -7.044)" fill="#cb0202"/>
            <path id="Path_1776" data-name="Path 1776" d="M-68.2,27.705v.358a4.782,4.782,0,0,1-.214,1.406h-23.99a4.775,4.775,0,0,1-.206-1.406v-.358Z" transform="translate(92.611 -8.597)" fill="#fff"/>
            <rect id="Rectangle_619" data-name="Rectangle 619" width="24.405" height="1.766" transform="translate(0.003 17.411)" fill="#cb0202"/>
            <path id="Path_1777" data-name="Path 1777" d="M-70.377,27.136h-22.1a4.855,4.855,0,0,1,3.743-1.764h14.618A4.813,4.813,0,0,1-70.377,27.136Z" transform="translate(93.621 -25.372)" fill="#cb0202"/>
            <path id="Path_1778" data-name="Path 1778" d="M-68.6,27.348H-92.586c.041-.141.09-.283.14-.408a4.721,4.721,0,0,1,.789-1.356h22.12a4.582,4.582,0,0,1,.805,1.356A2.949,2.949,0,0,1-68.6,27.348Z" transform="translate(92.794 -23.82)" fill="#fff"/>
            <rect id="Rectangle_620" data-name="Rectangle 620" width="24.405" height="1.766" transform="translate(0.003 5.226)" fill="#fff"/>
            <rect id="Rectangle_621" data-name="Rectangle 621" width="24.405" height="1.766" transform="translate(0.003 6.969)" fill="#cb0202"/>
            <rect id="Rectangle_622" data-name="Rectangle 622" width="24.405" height="1.766" transform="translate(0.003 8.711)" fill="#fff"/>
            <rect id="Rectangle_623" data-name="Rectangle 623" width="24.405" height="1.753" transform="translate(0.003 10.453)" fill="#cb0202"/>
          </g>
          <path id="Path_1779" data-name="Path 1779" d="M-80.262,25.372V39.486H-92.611V30.307A4.76,4.76,0,0,1-92.4,28.9c.042-.141.092-.283.141-.408a4.707,4.707,0,0,1,.8-1.356,4.95,4.95,0,0,1,3.795-1.764Z" transform="translate(92.611 -25.372)" fill="#040264"/>
        </g>
        <g id="Group_1820" data-name="Group 1820" transform="translate(1.373 3.528)">
          <path id="Path_1780" data-name="Path 1780" d="M-88.044,32.445a3.122,3.122,0,0,1-3.121-3.121A3.122,3.122,0,0,1-88.044,26.2a3.044,3.044,0,0,1,1.107.208,3.469,3.469,0,0,0-1.981-.616,3.53,3.53,0,0,0-3.528,3.528,3.53,3.53,0,0,0,3.528,3.528,3.526,3.526,0,0,0,1.981-.607A3.039,3.039,0,0,1-88.044,32.445Z" transform="translate(92.446 -25.796)" fill="#fecb17"/>
          <path id="Path_1781" data-name="Path 1781" d="M-89.081,25.867l.31,1.573.963-1.282-.4,1.551,1.423-.737L-87.822,28.2l1.6-.047-1.465.653,1.465.653-1.6-.047,1.035,1.223-1.423-.737.4,1.552-.963-1.282-.31,1.573-.311-1.573-.963,1.282.4-1.552-1.423.737,1.035-1.223-1.6.047,1.464-.653-1.464-.653,1.6.047-1.035-1.224,1.423.737-.4-1.551.963,1.282Z" transform="translate(96.132 -25.273)" fill="#fecb17"/>
        </g>
      </g>
    </g>
  </g>
</svg>
