<svg xmlns="http://www.w3.org/2000/svg" width="27" height="27" viewBox="0 0 27 27">
  <g id="Uraguay" transform="translate(0 0.183)">
    <path id="Path_3099" data-name="Path 3099" d="M4,0H23a4,4,0,0,1,4,4V23a4,4,0,0,1-4,4H4a4,4,0,0,1-4-4V4A4,4,0,0,1,4,0Z" transform="translate(0 -0.183)" fill="#4586ff" opacity="0.45"/>
    <g id="Group_1848" data-name="Group 1848" transform="translate(1.356 1.356)">
      <g id="Group_1847" data-name="Group 1847" transform="translate(0 0)">
        <g id="Group_1839" data-name="Group 1839">
          <g id="Group_1838" data-name="Group 1838">
            <rect id="Rectangle_633" data-name="Rectangle 633" width="24.406" height="2.745" transform="translate(0.003 16.246)" fill="#fff"/>
            <rect id="Rectangle_634" data-name="Rectangle 634" width="24.406" height="2.745" transform="translate(0.003 13.54)" fill="#0738a6"/>
            <path id="Path_2119" data-name="Path 2119" d="M-68.2,2.716v.558a5.023,5.023,0,0,1-.337,1.8,2.147,2.147,0,0,1-.189.391H-92.093a2.8,2.8,0,0,1-.173-.391,4.857,4.857,0,0,1-.345-1.8V2.716Z" transform="translate(92.611 16.2)" fill="#0738a6"/>
            <path id="Path_2120" data-name="Path 2120" d="M-69.2,3.046A4.823,4.823,0,0,1-73.55,5.784H-88.178a4.839,4.839,0,0,1-4.37-2.738Z" transform="translate(93.072 18.616)" fill="#fff"/>
            <rect id="Rectangle_635" data-name="Rectangle 635" width="24.406" height="2.745" transform="translate(0.003 5.421)" fill="#fff"/>
            <rect id="Rectangle_636" data-name="Rectangle 636" width="24.406" height="2.745" transform="translate(0.003 10.833)" fill="#fff"/>
            <path id="Path_2121" data-name="Path 2121" d="M-68.2,2.926v.558H-92.611V2.926A4.955,4.955,0,0,1-92.266,1.1c.049-.117.107-.241.173-.366h23.364a3.14,3.14,0,0,1,.189.366A5.125,5.125,0,0,1-68.2,2.926Z" transform="translate(92.611 2.017)" fill="#0738a6"/>
            <path id="Path_2122" data-name="Path 2122" d="M-69.2,3.16H-92.548A4.844,4.844,0,0,1-88.178.406H-73.55A4.829,4.829,0,0,1-69.2,3.16Z" transform="translate(93.072 -0.406)" fill="#fff"/>
            <rect id="Rectangle_637" data-name="Rectangle 637" width="24.406" height="2.745" transform="translate(0.003 8.127)" fill="#0738a6"/>
          </g>
          <path id="Path_2123" data-name="Path 2123" d="M-78.888.406V14.137H-92.611V5.349a4.9,4.9,0,0,1,.35-1.822c.05-.117.108-.241.175-.366A4.913,4.913,0,0,1-87.66.406Z" transform="translate(92.611 -0.406)" fill="#fff"/>
        </g>
        <g id="Group_1846" data-name="Group 1846" transform="translate(1.656 1.656)">
          <g id="Group_1845" data-name="Group 1845">
            <g id="Group_1844" data-name="Group 1844">
              <g id="Group_1843" data-name="Group 1843">
                <g id="Group_1842" data-name="Group 1842">
                  <g id="Group_1840" data-name="Group 1840" transform="translate(0.724 0.724)">
                    <path id="Path_2124" data-name="Path 2124" d="M-91.862,1.45l.2.366a1.868,1.868,0,0,1,.225.882v.108l.749.516h0a6.431,6.431,0,0,0-.325-.84,4.572,4.572,0,0,0-.691-1.09l-.025-.025A1.308,1.308,0,0,1-92,.726l-.008.025a.968.968,0,0,0-.008.308A1.179,1.179,0,0,0-91.862,1.45Z" transform="translate(94.492 -0.443)" fill="#fbd023"/>
                    <path id="Path_2125" data-name="Path 2125" d="M-91.755,1.225a4.78,4.78,0,0,1,.707,1.1,4.946,4.946,0,0,1,.291.774l.108-.607a3.246,3.246,0,0,0-.549-.974,2.567,2.567,0,0,0-.6-.508A.589.589,0,0,1-92,.759l-.008-.017a1.441,1.441,0,0,0,.241.458Z" transform="translate(94.609 -0.326)" fill="#fbd023"/>
                    <path id="Path_2126" data-name="Path 2126" d="M-91.713,3.53a1.464,1.464,0,0,1,.383-.05V.692l-.524,2.879Z" transform="translate(95.773 -0.692)" fill="#fbd023"/>
                    <path id="Path_2127" data-name="Path 2127" d="M-91.257,3.571-91.781.692V3.48l.125.008A1.709,1.709,0,0,1-91.257,3.571Z" transform="translate(96.308 -0.692)" fill="#fbd023"/>
                    <path id="Path_2128" data-name="Path 2128" d="M-91.194,2.643a4.2,4.2,0,0,0,.25-1.057l.033-.233A1.213,1.213,0,0,1-90.653.7a.826.826,0,0,0-.25.225l-.083.133c-.025.058-.042.133-.083.258l-.117.391a1.838,1.838,0,0,1-.541.865l.158.89A6.217,6.217,0,0,0-91.194,2.643Z" transform="translate(96.703 -0.604)" fill="#fbd023"/>
                    <path id="Path_2129" data-name="Path 2129" d="M-90.961.842l.042-.117a1.413,1.413,0,0,0-.158.491l-.033.225a4.342,4.342,0,0,1-.25,1.082,6.23,6.23,0,0,1-.333.749l.5-.35h0a3.227,3.227,0,0,0,.3-1.074,2.539,2.539,0,0,0-.067-.791A.475.475,0,0,1-90.961.842Z" transform="translate(96.952 -0.45)" fill="#fbd023"/>
                    <path id="Path_2130" data-name="Path 2130" d="M-91.7,2.511a1.683,1.683,0,0,1,.433.3L-89.3.847-91.114,2.1Z" transform="translate(96.923 0.443)" fill="#fbd023"/>
                    <path id="Path_2131" data-name="Path 2131" d="M-90.971,2.369a3.3,3.3,0,0,0,.915-.508l.05-.042a2.381,2.381,0,0,0,.508-.6A.572.572,0,0,1-89.224,1a1.389,1.389,0,0,0-.466.241,5.084,5.084,0,0,1-1.123.724c-.166.075-.3.125-.424.175l-.141.05-.2.067.608.108Z" transform="translate(97.787 1.592)" fill="#fbd023"/>
                    <path id="Path_2132" data-name="Path 2132" d="M-91.077,1.58h0l-.516.749.283-.1A4.141,4.141,0,0,0-90.744,2a4.67,4.67,0,0,0,1.107-.716,1.3,1.3,0,0,1,.649-.275l-.033-.008A.968.968,0,0,0-89.329,1a1.088,1.088,0,0,0-.383.158l-.366.2A1.89,1.89,0,0,1-91.077,1.58Z" transform="translate(97.684 1.475)" fill="#fbd023"/>
                    <path id="Path_2133" data-name="Path 2133" d="M-91.338,3.259h0l1.673-2.4-1.972,1.964A1.591,1.591,0,0,1-91.338,3.259Z" transform="translate(97.355 0.494)" fill="#fbd023"/>
                    <path id="Path_2134" data-name="Path 2134" d="M-91.5,1.687h2.788l-2.879-.524A1.578,1.578,0,0,1-91.5,1.687Z" transform="translate(97.684 2.757)" fill="#fbd023"/>
                    <path id="Path_2135" data-name="Path 2135" d="M-91.593,1.76l2.879-.524H-91.5A1.578,1.578,0,0,1-91.593,1.76Z" transform="translate(97.684 3.291)" fill="#fbd023"/>
                    <path id="Path_2136" data-name="Path 2136" d="M-89.053,2.114a.979.979,0,0,0-.383-.166l-.4-.117A1.889,1.889,0,0,1-90.7,1.29l-.89.158a6.763,6.763,0,0,0,.824.374,4.3,4.3,0,0,0,1.157.258l.133.025a1.355,1.355,0,0,1,.657.25l-.058-.067A.865.865,0,0,0-89.053,2.114Z" transform="translate(97.699 3.686)" fill="#fbd023"/>
                    <path id="Path_2137" data-name="Path 2137" d="M-89.664,1.93a4.947,4.947,0,0,1-1.173-.266,5.058,5.058,0,0,1-.749-.341h0l.35.508a3.505,3.505,0,0,0,1.073.3,2.506,2.506,0,0,0,.791-.067.475.475,0,0,1,.216,0l.116.042a1.423,1.423,0,0,0-.483-.158Z" transform="translate(97.736 3.928)" fill="#fbd023"/>
                    <path id="Path_2138" data-name="Path 2138" d="M-91.338,1.32l-.017.033a1.512,1.512,0,0,1-.283.4l1.972,1.964L-90.922,1.9Z" transform="translate(97.355 3.906)" fill="#fbd023"/>
                    <path id="Path_2139" data-name="Path 2139" d="M-91.7,1.679l2.4,1.673-1.964-1.972A1.683,1.683,0,0,1-91.7,1.679Z" transform="translate(96.923 4.338)" fill="#fbd023"/>
                    <path id="Path_2140" data-name="Path 2140" d="M-90.538,3.3l-.2-.366a1.89,1.89,0,0,1-.225-1l-.741-.516a6.451,6.451,0,0,0,.3.816l.017.033a4.673,4.673,0,0,0,.716,1.107,1.411,1.411,0,0,1,.283.649V4a.968.968,0,0,0,.008-.308A1.088,1.088,0,0,0-90.538,3.3Z" transform="translate(96.879 4.667)" fill="#fbd023"/>
                    <path id="Path_2141" data-name="Path 2141" d="M-91.315,2.2l-.017-.033c-.067-.15-.117-.275-.166-.391s-.083-.233-.116-.341l-.108.607h0a3.315,3.315,0,0,0,.549.965,2.3,2.3,0,0,0,.607.508.634.634,0,0,1,.2.25l.008.025a1.39,1.39,0,0,0-.241-.466A4.974,4.974,0,0,1-91.315,2.2Z" transform="translate(96.733 4.77)" fill="#fbd023"/>
                    <path id="Path_2142" data-name="Path 2142" d="M-91.781,1.516V4.3l.524-2.879A1.578,1.578,0,0,1-91.781,1.516Z" transform="translate(96.308 4.667)" fill="#fbd023"/>
                    <path id="Path_2143" data-name="Path 2143" d="M-91.33,4.3V1.516a1.578,1.578,0,0,1-.524-.092Z" transform="translate(95.773 4.667)" fill="#fbd023"/>
                    <path id="Path_2144" data-name="Path 2144" d="M-91.44,2.25a3.1,3.1,0,0,0-.2.774l-.075.516a1.438,1.438,0,0,1-.258.657l.075-.058a.819.819,0,0,0,.166-.175.978.978,0,0,0,.166-.383l.116-.4a2.222,2.222,0,0,1,.3-.6,2.333,2.333,0,0,1,.241-.266l-.158-.89A6.77,6.77,0,0,0-91.44,2.25Z" transform="translate(94.902 4.682)" fill="#fbd023"/>
                    <path id="Path_2145" data-name="Path 2145" d="M-91.9,3.861l-.042.117a1.134,1.134,0,0,0,.158-.491l.083-.516a2.986,2.986,0,0,1,.208-.791,6.245,6.245,0,0,1,.333-.749l-.508.35a3.5,3.5,0,0,0-.3,1.074,2.781,2.781,0,0,0,.067.791A.473.473,0,0,1-91.9,3.861Z" transform="translate(94.88 4.719)" fill="#fbd023"/>
                    <path id="Path_2146" data-name="Path 2146" d="M-90.2,1.379l-1.964,1.972,2.4-1.673A1.59,1.59,0,0,1-90.2,1.379Z" transform="translate(93.511 4.338)" fill="#fbd023"/>
                    <path id="Path_2147" data-name="Path 2147" d="M-90.506,1.32l-.574.824-1.09,1.573,1.964-1.964A1.682,1.682,0,0,1-90.506,1.32Z" transform="translate(93.46 3.906)" fill="#fbd023"/>
                    <path id="Path_2148" data-name="Path 2148" d="M-90.319,2.055h.108l.516-.741-.283.092a5.575,5.575,0,0,0-.558.225,4.678,4.678,0,0,0-1.115.716,1.423,1.423,0,0,1-.641.283,1.129,1.129,0,0,0,.333.008,1.18,1.18,0,0,0,.391-.158l.366-.2A1.976,1.976,0,0,1-90.319,2.055Z" transform="translate(92.574 3.862)" fill="#fbd023"/>
                    <path id="Path_2149" data-name="Path 2149" d="M-91.5,1.843a2.452,2.452,0,0,0-.458.524l-.05.083a.632.632,0,0,1-.266.208,1.442,1.442,0,0,0,.458-.241,5.419,5.419,0,0,1,1.123-.724c.233-.1.408-.166.566-.225l.208-.067-.608-.108h-.008A3.316,3.316,0,0,0-91.5,1.843Z" transform="translate(92.691 3.716)" fill="#fbd023"/>
                    <path id="Path_2150" data-name="Path 2150" d="M-89.537,1.612a1.659,1.659,0,0,1,.092-.449l-2.879.524h2.788Z" transform="translate(92.325 2.757)" fill="#fbd023"/>
                    <path id="Path_2151" data-name="Path 2151" d="M-89.446,1.76a1.578,1.578,0,0,1-.092-.524h-2.788l2.005.366Z" transform="translate(92.325 3.291)" fill="#fbd023"/>
                    <path id="Path_2152" data-name="Path 2152" d="M-90.494,1.524h0a6.249,6.249,0,0,1,.749.333h0l-.35-.508a3.438,3.438,0,0,0-1.073-.3,2.822,2.822,0,0,0-.791.067.475.475,0,0,1-.216,0l-.116-.042a1.134,1.134,0,0,0,.491.158A4.967,4.967,0,0,1-90.494,1.524Z" transform="translate(92.567 1.863)" fill="#fbd023"/>
                    <path id="Path_2153" data-name="Path 2153" d="M-92.088,1.285a1.027,1.027,0,0,0,.391.166l.4.117a1.843,1.843,0,0,1,.857.541l.89-.158a6.223,6.223,0,0,0-.824-.374,4.865,4.865,0,0,0-1.29-.275,1.363,1.363,0,0,1-.649-.258l.025.033A.958.958,0,0,0-92.088,1.285Z" transform="translate(92.413 1.885)" fill="#fbd023"/>
                    <path id="Path_2154" data-name="Path 2154" d="M-90.506,3.259l.017-.042a1.661,1.661,0,0,1,.283-.4L-92.17.854l1.606,2.322Z" transform="translate(93.46 0.494)" fill="#fbd023"/>
                    <path id="Path_2155" data-name="Path 2155" d="M-89.758,2.511l-2.4-1.664L-90.2,2.811A1.59,1.59,0,0,1-89.758,2.511Z" transform="translate(93.511 0.443)" fill="#fbd023"/>
                    <path id="Path_2156" data-name="Path 2156" d="M-91.622,1.168h-.017c.017.05.058.208-.05.266l-.008.008a.629.629,0,0,0,.183-.083.487.487,0,0,0-.008-.15Z" transform="translate(96.923 2.793)" fill="#fbd023"/>
                    <path id="Path_2157" data-name="Path 2157" d="M-91.72,1.434c-.1-.058-.067-.216-.05-.266h-.017l-.1.042a.487.487,0,0,0-.008.15.629.629,0,0,0,.183.083Z" transform="translate(95.457 2.793)" fill="#fbd023"/>
                    <path id="Path_2158" data-name="Path 2158" d="M-88.85,2.1l-.017-.025-.008-.025-.017-.025V2l-.008-.025a1.55,1.55,0,0,0-.3-.433l-.033-.042-.025-.025a1.169,1.169,0,0,0-.275-.191.7.7,0,0,0-.2-.117l-.008-.008h-.025a1.5,1.5,0,0,0-.449-.117,1.008,1.008,0,0,0-.158-.008,1.37,1.37,0,0,0-.408.05l-.175.058h-.008l-.017.017h-.025l-.008.008h-.017l-.2.117a1.7,1.7,0,0,0-.283.216,1.476,1.476,0,0,0-.291.408l-.05.117-.017.008v.017l-.008.025a1.658,1.658,0,0,0-.1.466v.15a1.357,1.357,0,0,0,.1.516v.017l.008.033.017.025.008.025.017.025a1.758,1.758,0,0,0,.283.433l.033.025.025.025a2.165,2.165,0,0,0,.275.208l.158.092.025.008.025.017.025.008.025.017h.025a1.5,1.5,0,0,0,.516.1h.092a1.529,1.529,0,0,0,.508-.1h.025l.025-.017.025-.008.025-.017.025-.008a.776.776,0,0,0,.158-.092,1.258,1.258,0,0,0,.275-.208l.025-.025.033-.025a1.412,1.412,0,0,0,.258-.383l.042-.058.008-.017V3.284l.017-.025.008-.025.017-.025a1.767,1.767,0,0,0,.092-.516V2.61A1.712,1.712,0,0,0-88.85,2.1Zm-1.265.674c.042.017.1.05.125.191l.108.05.1.083-.033-.008-.025-.017-.067-.025-.15-.033-.133.008a.236.236,0,0,1-.183.075.283.283,0,0,1-.183-.075l-.141-.008-.15.033-.058.025-.025.017a.094.094,0,0,1,.058-.075l.125-.05a.224.224,0,0,1,.125-.191c-.15.241.075.191.1.166,0,.075.083.083.133.083h.042c.033,0,.133-.008.125-.083C-90.2,2.968-89.982,3.018-90.115,2.776Zm-.233.882h-.05a.641.641,0,0,1-.283-.042,1.231,1.231,0,0,0-.35-.166h.075a1.072,1.072,0,0,1,.308.083,1.12,1.12,0,0,0,.275.025,1.087,1.087,0,0,0,.275-.025,1.146,1.146,0,0,1,.308-.083h.075c-.15.025-.216.108-.35.166A.641.641,0,0,1-90.348,3.658Zm.133.183v.017l-.05-.017h-.216l-.05.017.05-.025.042-.017h.166l.025.017Zm.424-.433a1.486,1.486,0,0,1-.358,0,.452.452,0,0,0-.2.017h-.042a.478.478,0,0,0-.208-.017,1.372,1.372,0,0,1-.341,0L-91.08,3.4a2.18,2.18,0,0,0,.349-.075.507.507,0,0,1,.291-.025l.042.008h.05l.033-.008a.53.53,0,0,1,.3.025,2.2,2.2,0,0,0,.358.075Zm-1.772-1.381L-91.588,2V1.986l.025-.008a.536.536,0,0,1,.166-.092.582.582,0,0,1,.466-.108.862.862,0,0,1,.333.233c.025.017.067.067.025.067s-.1-.067-.125-.075a.613.613,0,0,0-.433-.1.632.632,0,0,0-.216.05l-.117.033Zm.2.183-.075.042-.033.008V2.252a.709.709,0,0,1,.391-.2.416.416,0,0,1,.358.083c.075.067.05.117.05.117a.842.842,0,0,0-.158-.117l-.042.141a.261.261,0,0,1-.158.133.23.23,0,0,0,.175-.042l.083-.058.025-.017h.017l.008.017v.025l-.05.05-.125.058a.439.439,0,0,1-.333-.05c-.158-.083-.133-.117-.117-.108l.033.025V2.235l.008-.025.017-.033Zm.133,1.265V3.45l.017-.05.008-.025.017-.017.033-.033.042-.025.025-.017-.025.025-.017.017-.008.008-.017.025-.008.017-.025.033-.025.042Zm1.723,0-.017.008-.008-.033-.017-.042-.025-.033-.025-.017-.008-.025-.017-.008-.008-.017-.025-.025h.017l.017.017.042.025.025.033.025.017.008.025.017.05Zm.233-1.215-.033-.008-.067-.042-.083-.033.008.033.017.025V2.31l.033-.025c.025-.008.042.025-.125.108a.418.418,0,0,1-.333.05l-.125-.058-.05-.05V2.31l.017-.017h.025l.025.017.083.058a.222.222,0,0,0,.175.042.3.3,0,0,1-.175-.133l-.033-.141a1.294,1.294,0,0,0-.158.117s-.025-.05.042-.117a.436.436,0,0,1,.366-.083.78.78,0,0,1,.408.2Zm.083-.233-.092-.042-.116-.033a.561.561,0,0,0-.225-.05.623.623,0,0,0-.433.1l-.108.075c-.05,0,0-.05.017-.067a.832.832,0,0,1,.341-.233.616.616,0,0,1,.474.108l.142.092.025.008Z" transform="translate(94.858 1.834)" fill="#fbd023"/>
                  </g>
                  <g id="Group_1841" data-name="Group 1841">
                    <path id="Path_2159" data-name="Path 2159" d="M-82.8,7.237l-.05-.05a1.038,1.038,0,0,0-.141-.133,1.169,1.169,0,0,0-.416-.175c-.083-.025-.225-.058-.4-.125a1.76,1.76,0,0,1-.774-.466l2.6-.466-2.721-.5a3.967,3.967,0,0,0,.807-.466l.042-.05a2.04,2.04,0,0,0,.35-.358c.067-.075.108-.166.183-.266.175-.258.524-.233.757-.216l.183.025-.158-.1a1.412,1.412,0,0,0-.466-.166,1.594,1.594,0,0,0-.341-.008,1.14,1.14,0,0,0-.416.175c-.075.033-.2.108-.358.183a1.914,1.914,0,0,1-.89.225l1.5-2.164L-85.78,3.709a4.212,4.212,0,0,0,.233-.965,2.623,2.623,0,0,0-.058-.816.373.373,0,0,1,0-.191L-85.6,1.7a1.063,1.063,0,0,1,.375-.474l.133-.108-.183.033a1.408,1.408,0,0,0-.682.449l-.075.1-.008.05a.647.647,0,0,0-.091.266c-.033.092-.075.216-.125.4a1.738,1.738,0,0,1-.483.782l-.258-1.5-.075-.383L-87.2.6l-.125.716L-87.4,1.7l-.3,1.614a3.078,3.078,0,0,0-.5-.849,2.59,2.59,0,0,0-.624-.533A.385.385,0,0,1-89,1.728l-.008-.025a1.269,1.269,0,0,1-.033-.524L-89.033,1l-.1.158a1.33,1.33,0,0,0-.158.474l-.017.075a1.336,1.336,0,0,0,0,.258,1.145,1.145,0,0,0,.175.408l.2.374a1.641,1.641,0,0,1,.208.89l-2.164-1.5L-89.316,4.4a3.272,3.272,0,0,0-.965-.241,2.421,2.421,0,0,0-.816.067.674.674,0,0,1-.183,0,1.063,1.063,0,0,1-.5-.383l-.125-.133.05.166a1.291,1.291,0,0,0,.216.458l.083.117a.608.608,0,0,0,.133.125A1.127,1.127,0,0,0-91,4.741c.1.025.225.067.391.125a2.012,2.012,0,0,1,.791.483l-1.889.333-.707.141L-89.7,6.3a4.327,4.327,0,0,0-.857.524,1.8,1.8,0,0,0-.341.366l-.125.175-.05.075c-.183.275-.533.233-.766.225l-.175-.017.15.092a1.267,1.267,0,0,0,.441.158.768.768,0,0,0,.233.025h.125a1.02,1.02,0,0,0,.424-.175l.358-.191a1.838,1.838,0,0,1,.9-.225L-90.889,9.5l2.272-1.581a3.7,3.7,0,0,0-.241.974,2.028,2.028,0,0,0,.075.807.417.417,0,0,1-.017.183l-.008.05a.955.955,0,0,1-.358.458l-.15.125.183-.05a1.18,1.18,0,0,0,.5-.25.7.7,0,0,0,.191-.191l.05-.092a1.228,1.228,0,0,0,.125-.316c.025-.1.067-.225.108-.4a2.012,2.012,0,0,1,.483-.791l.275,1.506.2,1.09.2-1.09.291-1.631a2.044,2.044,0,0,0,.216.424,4.465,4.465,0,0,0,.291.441,3.017,3.017,0,0,0,.632.524A.686.686,0,0,1-85.4,9.9l.008.033a1.072,1.072,0,0,1,.025.508l-.008.183.1-.158a1.3,1.3,0,0,0,.158-.458l.008-.075a.669.669,0,0,0,0-.258,1.033,1.033,0,0,0-.166-.416c-.05-.092-.117-.2-.2-.374a1.9,1.9,0,0,1-.208-.89L-83.516,9.5l-1.573-2.272a4.071,4.071,0,0,0,.965.25,3.017,3.017,0,0,0,.816-.075.342.342,0,0,1,.183,0,1.036,1.036,0,0,1,.508.383l.108.133-.033-.175A1.467,1.467,0,0,0-82.8,7.237Zm-2.8-.865a2.025,2.025,0,0,0,.1-.516h2.779Zm-3.212-.516v-.15a1.658,1.658,0,0,1,.1-.466l.008-.025V5.2l.017-.008.05-.117a1.476,1.476,0,0,1,.291-.408,1.7,1.7,0,0,1,.283-.216l.2-.117h.017l.008-.008h.025l.017-.017h.008l.175-.058A1.37,1.37,0,0,1-87.2,4.2a1.008,1.008,0,0,1,.158.008,1.5,1.5,0,0,1,.449.117h.025l.008.008a.7.7,0,0,1,.2.117,1.169,1.169,0,0,1,.275.191l.025.025.033.042a1.549,1.549,0,0,1,.3.433l.008.025V5.19l.017.025.008.025.017.025a1.711,1.711,0,0,1,.092.508v.083a1.766,1.766,0,0,1-.092.516L-85.7,6.4l-.008.025-.017.025v.025l-.008.017-.042.058a1.411,1.411,0,0,1-.258.383l-.033.025-.025.025a1.258,1.258,0,0,1-.275.208.776.776,0,0,1-.158.092l-.025.008-.025.017-.025.008-.025.017h-.025a1.529,1.529,0,0,1-.508.1h-.092a1.5,1.5,0,0,1-.516-.1h-.025l-.025-.017-.025-.008-.025-.017-.025-.008-.158-.092a2.166,2.166,0,0,1-.275-.208l-.025-.025-.033-.025a1.759,1.759,0,0,1-.283-.433l-.017-.025-.008-.025-.017-.025-.008-.033V6.372A1.357,1.357,0,0,1-88.809,5.856Zm6.091-.083H-85.5a2.328,2.328,0,0,0-.1-.524ZM-83.4,4.142c-.083.117-.141.216-.216.308a1.874,1.874,0,0,1-.283.291l-.067.042a3.3,3.3,0,0,1-.915.508l-.607-.1.2-.075.15-.05c.125-.05.258-.1.416-.175a3.125,3.125,0,0,0,.757-.441c.1-.075.225-.166.383-.291a1.586,1.586,0,0,1,.458-.233A.626.626,0,0,0-83.4,4.142Zm-1.564.241a1.8,1.8,0,0,0,.874-.225l.375-.191a.992.992,0,0,1,.383-.166,1.9,1.9,0,0,1,.308,0l.025.017a1.231,1.231,0,0,0-.641.283,2.57,2.57,0,0,0-.258.2l-.216.15a1.643,1.643,0,0,1-.191.133,2.108,2.108,0,0,1-.191.1.29.29,0,0,1-.125.058l-.133.067a5.912,5.912,0,0,1-.558.233c-.1.025-.183.058-.283.083l.483-.674.033-.067Zm-.275.067-.433.624a1.55,1.55,0,0,0-.3-.433L-84,2.677Zm1.173-1.831L-85.9,4.45l-.133.133-.158-.133a1.853,1.853,0,0,0-.275-.166l.583-.408Zm-1.564.108a3.042,3.042,0,0,1-.3,1.074l-.508.35a6.43,6.43,0,0,0,.333-.757,3.614,3.614,0,0,0,.258-1.074l.025-.225a2.052,2.052,0,0,1,.067-.241l.008-.025.05-.125.042-.1-.025.1H-85.7v.025a.868.868,0,0,0,0,.208A2.3,2.3,0,0,1-85.63,2.727Zm-.533-.283.108-.408a2.157,2.157,0,0,1,.083-.25l.05-.083.025-.05a1.322,1.322,0,0,1,.25-.225.944.944,0,0,0-.15.275,1.224,1.224,0,0,0-.1.383l-.033.225a4.11,4.11,0,0,1-.25,1.057,7.79,7.79,0,0,1-.366.832l-.166-.907A1.871,1.871,0,0,0-86.162,2.444Zm-.99-1.115.058.374.458,2.5a1.691,1.691,0,0,0-.408-.083l-.108-.008Zm-.15.374.058-.374V4.117a2.835,2.835,0,0,0-.383.042l-.133.05Zm-1.681.2a.666.666,0,0,0,.108.108,2.784,2.784,0,0,1,.6.508,3.074,3.074,0,0,1,.549.974l-.108.607a6.127,6.127,0,0,0-.3-.766,4.623,4.623,0,0,0-.7-1.1l-.017-.042a.729.729,0,0,1-.133-.208.236.236,0,0,1-.058-.133V1.812A.143.143,0,0,0-88.983,1.9Zm.125.8c-.092-.175-.15-.283-.2-.366a1.089,1.089,0,0,1-.158-.383.631.631,0,0,1,0-.25l.008-.067.017.067.033.125a1.273,1.273,0,0,0,.116.241,1.175,1.175,0,0,0,.117.191l.025.025a5.988,5.988,0,0,1,.7,1.074,8.348,8.348,0,0,1,.316.849l-.749-.516.008-.1A1.908,1.908,0,0,0-88.859,2.7Zm.924,1.581a1.58,1.58,0,0,0-.283.166l-.158.133-.141-.133L-90.34,2.619Zm-2.472-1.606,1.773,1.773.191.191a1.673,1.673,0,0,0-.266.4l-.025.033-.067-.067-.383-.558Zm-.89,1.631a.51.51,0,0,0,.225,0A2.175,2.175,0,0,1-90.3,4.25a2.679,2.679,0,0,1,.474.083,3.631,3.631,0,0,1,.383.1l.025.017.2.083.358.508v.008a7.986,7.986,0,0,0-.757-.341,3.034,3.034,0,0,0-.841-.208l-.208-.042-.092-.008-.166-.025a1.548,1.548,0,0,1-.5-.15Zm.716.474-.391-.117a1.246,1.246,0,0,1-.383-.158l-.067-.058-.15-.15-.025-.042a1.124,1.124,0,0,0,.375.191,1.205,1.205,0,0,0,.283.058,4.792,4.792,0,0,1,1.29.283,5.753,5.753,0,0,1,.824.374l-.89.158A1.944,1.944,0,0,0-90.581,4.782Zm1.773.466A2.153,2.153,0,0,0-88.9,5.7v.075H-91.68Zm-2.871.607H-88.9a1.719,1.719,0,0,0,.092.516l-.866-.141Zm.666,1.631.067-.075.158-.225.15-.166.15-.141a3.361,3.361,0,0,1,.965-.541l.6.108-.191.067a5.97,5.97,0,0,0-.574.233,3.52,3.52,0,0,0-.749.441l-.374.275a1.4,1.4,0,0,1-.458.233A.449.449,0,0,0-91.014,7.487Zm1.581-.25a1.992,1.992,0,0,0-.89.241l-.366.191a.992.992,0,0,1-.383.166,1.562,1.562,0,0,1-.333-.017,1.423,1.423,0,0,0,.641-.283c.2-.15.35-.258.466-.35a4.6,4.6,0,0,1,.649-.366,4.338,4.338,0,0,1,.558-.225l.283-.1-.483.691-.042.067Zm.125.141.125-.191.449-.641a1.414,1.414,0,0,0,.291.433l-.208.208L-90.406,8.96ZM-90.34,9.01l1.964-1.964a1.352,1.352,0,0,0,.183.141,1.5,1.5,0,0,0,.258.166Zm1.564-.1a3.041,3.041,0,0,1,.3-1.074l.508-.358a5.149,5.149,0,0,0-.333.749,3.8,3.8,0,0,0-.216.791c-.025.141-.05.3-.075.524a1.251,1.251,0,0,1-.042.216l-.05.15-.017.025-.008.017V9.909a.474.474,0,0,0,0-.216A3.117,3.117,0,0,1-88.775,8.91Zm.84-.325a1.8,1.8,0,0,0-.291.607,3.3,3.3,0,0,0-.125.4.782.782,0,0,1-.141.341l-.025.042a.655.655,0,0,1-.166.175l-.075.058a.941.941,0,0,0,.141-.275,1.387,1.387,0,0,0,.117-.383c.025-.225.05-.383.075-.516a3.378,3.378,0,0,1,.208-.782,5.546,5.546,0,0,1,.374-.816l.158.89A2.578,2.578,0,0,0-87.935,8.586Zm.691,1.706-.058-.358-.458-2.5a1.718,1.718,0,0,0,.516.083Zm.15-.358-.058.358V7.512a1.856,1.856,0,0,0,.516-.083Zm1.573-.316a2.633,2.633,0,0,1-.607-.508,3.081,3.081,0,0,1-.558-.965l.116-.607c.033.108.075.225.116.35.042.108.1.233.166.383l.008.033a4.718,4.718,0,0,0,.732,1.123,1.187,1.187,0,0,1,.225.449A.589.589,0,0,0-85.522,9.617Zm-.025-.682.2.358a1.143,1.143,0,0,1,.158.4.588.588,0,0,1,0,.241L-85.2,10l-.017-.067a.635.635,0,0,0-.075-.208.682.682,0,0,0-.075-.158,1.246,1.246,0,0,0-.125-.191,4.374,4.374,0,0,1-.7-1.107l-.025-.042a6.342,6.342,0,0,1-.3-.8l.741.508A1.9,1.9,0,0,0-85.547,8.935Zm-.915-1.581a1.185,1.185,0,0,0,.25-.166,1.365,1.365,0,0,0,.183-.141l.15.141,1.814,1.831ZM-84,8.96l-1.756-1.773-.216-.208a1.373,1.373,0,0,0,.291-.391l.008-.042.408.6.042.042Zm.89-1.631a.47.47,0,0,0-.216-.017,2.541,2.541,0,0,1-.791.075c-.15-.025-.291-.05-.433-.083a2.187,2.187,0,0,1-.416-.117l-.225-.092-.35-.508a6.236,6.236,0,0,0,.749.333,3.931,3.931,0,0,0,1.173.258l.075.008.058.017a1.175,1.175,0,0,1,.491.158A.176.176,0,0,0-83.108,7.329Zm.216,0-.083-.05a.684.684,0,0,0-.208-.092l-.075-.025a1.842,1.842,0,0,0-.208-.042l-.141-.025a3.957,3.957,0,0,1-1.148-.266,6.4,6.4,0,0,1-.832-.366l.907-.166a1.727,1.727,0,0,0,.849.549c.175.058.316.1.4.125a.964.964,0,0,1,.4.158l.067.058a.46.46,0,0,1,.1.117l.05.075Z" transform="translate(92.412 -0.605)"/>
                    <path id="Path_2160" data-name="Path 2160" d="M-91.566,1.429l-.012-.022-.015-.021-.035-.036-.036-.026-.027-.014-.011,0,.007.009.021.022.013.014.014.017.016.017.014.018.028.037.02.035.013.038,0-.012V1.472Z" transform="translate(97.622 4.529)"/>
                    <path id="Path_2161" data-name="Path 2161" d="M-91.233,1.543h.05a.915.915,0,0,0,.291-.05,1.183,1.183,0,0,1,.341-.166h-.075a1.276,1.276,0,0,0-.316.083.779.779,0,0,1-.266.033.779.779,0,0,1-.266-.033,1.329,1.329,0,0,0-.308-.083h-.083c.15.025.216.108.35.166A.84.84,0,0,0-91.233,1.543Z" transform="translate(96.417 4.681)"/>
                    <path id="Path_2162" data-name="Path 2162" d="M-91.338,1.165a.436.436,0,0,0-.366.083c-.067.067-.042.117-.042.117a1.294,1.294,0,0,1,.158-.117l.033.141a.3.3,0,0,0,.175.133.222.222,0,0,1-.175-.042l-.083-.058-.025-.017h-.025l-.017.017v.025l.05.05.125.058a.418.418,0,0,0,.333-.05c.166-.083.15-.117.125-.108l-.033.025V1.348l-.017-.025-.008-.033.008.141a.38.38,0,0,1-.175.075c.1-.058.067-.216.05-.266h.017l.1.05.083.033.067.042.033.008.017-.008A.78.78,0,0,0-91.338,1.165Z" transform="translate(97.255 3.445)"/>
                    <path id="Path_2163" data-name="Path 2163" d="M-91.751,1.432c.033.008.092-.058.125-.075a.658.658,0,0,1,.433-.1.713.713,0,0,1,.225.042l.108.042.1.042.025-.033V1.341l-.025-.017-.158-.083a.619.619,0,0,0-.466-.1.932.932,0,0,0-.35.225C-91.743,1.383-91.784,1.424-91.751,1.432Z" transform="translate(97.16 3.203)"/>
                    <path id="Path_2164" data-name="Path 2164" d="M-91.388,1.425a.688.688,0,0,1,.208.017h.033a.688.688,0,0,1,.208-.017,1.449,1.449,0,0,0,.349,0l.133-.017a2.182,2.182,0,0,1-.35-.075.691.691,0,0,0-.291-.017l-.042.008h-.05l-.042-.008a.683.683,0,0,0-.291.017,2.181,2.181,0,0,1-.35.075l.133.017A1.449,1.449,0,0,0-91.388,1.425Z" transform="translate(96.373 4.542)"/>
                    <path id="Path_2165" data-name="Path 2165" d="M-91.49,1.412h.017l-.008-.008-.042-.008-.025-.008-.025-.008-.067-.008-.033.008h-.033l-.05.017-.05.017h.05L-91.7,1.4h.058a.512.512,0,0,1,.117.008Z" transform="translate(96.849 4.996)"/>
                    <path id="Path_2166" data-name="Path 2166" d="M-91.515,1.245s-.108.025-.133.2l-.116.05-.092.083.025-.008.033-.017.058-.025.141-.033a.808.808,0,0,1,.142.008.257.257,0,0,0,.183.075A.258.258,0,0,0-91.09,1.5a.807.807,0,0,1,.141-.008l.141.033.067.025.025.017.033.008-.1-.083-.117-.05c-.025-.175-.133-.2-.133-.2.166.241-.067.191-.091.166.008.083-.092.092-.133.092h-.033c-.042,0-.141-.008-.133-.092C-91.448,1.436-91.681,1.486-91.515,1.245Z" transform="translate(96.483 4.081)"/>
                    <path id="Path_2167" data-name="Path 2167" d="M-91.778,1.325l-.036.026-.035.036-.015.021-.012.022-.013.042V1.5l0,.012.013-.038.02-.035.027-.037.015-.018.016-.017.014-.017.013-.014.021-.022.007-.009-.011,0Z" transform="translate(96.24 4.529)"/>
                    <path id="Path_2168" data-name="Path 2168" d="M-91.319,1.389l.042-.141a.842.842,0,0,1,.158.117s.025-.05-.05-.117a.416.416,0,0,0-.358-.083.709.709,0,0,0-.391.2v.008l.033-.008.075-.042.075-.033.1-.05h.008c-.008.05-.05.208.05.266a.482.482,0,0,1-.175-.075l.017-.141-.017.033-.008.025v.075l-.033-.025c-.017-.008-.042.025.116.108a.439.439,0,0,0,.333.05l.125-.058.05-.05V1.423l-.008-.017h-.017l-.025.017-.083.058a.23.23,0,0,1-.175.042A.261.261,0,0,0-91.319,1.389Z" transform="translate(96.029 3.445)"/>
                    <path id="Path_2169" data-name="Path 2169" d="M-91.7,1.3a.713.713,0,0,1,.225-.042.693.693,0,0,1,.441.1l.117.075c.033-.008-.008-.05-.017-.067a.844.844,0,0,0-.341-.225.639.639,0,0,0-.474.1l-.158.083-.025.017v.008l.033.033.1-.042Z" transform="translate(95.926 3.203)"/>
                  </g>
                </g>
              </g>
            </g>
          </g>
        </g>
      </g>
    </g>
  </g>
</svg>
