<svg xmlns="http://www.w3.org/2000/svg" width="27" height="28" viewBox="0 0 27 28">
  <g id="Makedonia" transform="translate(0 0.404)">
    <path id="Path_3487" data-name="Path 3487" d="M4,0H23a4,4,0,0,1,4,4V24a4,4,0,0,1-4,4H4a4,4,0,0,1-4-4V4A4,4,0,0,1,4,0Z" transform="translate(0 -0.404)" fill="#4586ff" opacity="0.45"/>
    <g id="Group_1828" data-name="Group 1828" transform="translate(1.356 1.356)">
      <g id="Group_1827" data-name="Group 1827">
        <path id="Path_1782" data-name="Path 1782" d="M-68.2,25.253V39.9a4.754,4.754,0,0,1-.2,1.381l-.148.411a4.879,4.879,0,0,1-4.537,3.09H-87.729a4.879,4.879,0,0,1-4.537-3.09l-.148-.411a4.753,4.753,0,0,1-.2-1.381V25.253a5.088,5.088,0,0,1,.206-1.372c.041-.14.09-.279.14-.419a4.88,4.88,0,0,1,4.537-3.082h14.646a4.872,4.872,0,0,1,4.537,3.082c.049.14.1.279.14.419A5.088,5.088,0,0,1-68.2,25.253Z" transform="translate(92.611 -20.371)" fill="#d10201"/>
        <g id="Group_1826" data-name="Group 1826">
          <g id="Group_1823" data-name="Group 1823" transform="translate(0 3.553)">
            <path id="Path_1783" data-name="Path 1783" d="M-83.673,22.924l-8.738,6.017a4.813,4.813,0,0,1-.2-1.4V26.3l8.4-4.2A3.682,3.682,0,0,0-83.673,22.924Z" transform="translate(92.611 -11.63)" fill="#fee51b"/>
            <path id="Path_1784" data-name="Path 1784" d="M-81.778,26.3v1.24a4.813,4.813,0,0,1-.2,1.4l-8.738-6.017a3.683,3.683,0,0,0,.533-.824Z" transform="translate(106.187 -11.63)" fill="#fee51b"/>
            <path id="Path_1785" data-name="Path 1785" d="M-81.778,22.195v1.24l-8.4,4.2a4.1,4.1,0,0,0-.533-.824l8.729-6.008A5.152,5.152,0,0,1-81.778,22.195Z" transform="translate(106.187 -20.805)" fill="#fee51b"/>
            <path id="Path_1786" data-name="Path 1786" d="M-83.673,26.813a4.1,4.1,0,0,0-.533.824l-8.4-4.2v-1.24A5.152,5.152,0,0,1-92.4,20.8Z" transform="translate(92.611 -20.805)" fill="#fee51b"/>
          </g>
          <g id="Group_1824" data-name="Group 1824" transform="translate(9.733)">
            <path id="Path_1787" data-name="Path 1787" d="M-86.48,30.37h-4.943l1.856-7.981a4.988,4.988,0,0,0,.616.042,5.1,5.1,0,0,0,.616-.042h0Z" transform="translate(91.423 -5.96)" fill="#fee51b"/>
            <path id="Path_1788" data-name="Path 1788" d="M-86.48,20.378l-1.856,7.981a5.1,5.1,0,0,0-.616-.042,4.988,4.988,0,0,0-.616.042l-1.856-7.981Z" transform="translate(91.423 -20.378)" fill="#fee51b"/>
          </g>
          <g id="Group_1825" data-name="Group 1825" transform="translate(0 10.981)">
            <path id="Path_1789" data-name="Path 1789" d="M-84.672,22.939a3.91,3.91,0,0,0,.017.441l-7.956.8V21.716l7.956.8A3.621,3.621,0,0,0-84.672,22.939Z" transform="translate(92.611 -21.716)" fill="#fee51b"/>
            <path id="Path_1790" data-name="Path 1790" d="M-82.641,21.716v2.463l-7.956-.8c.008-.141.008-.3.008-.441s0-.283-.008-.424Z" transform="translate(107.051 -21.716)" fill="#fee51b"/>
          </g>
          <path id="Path_1791" data-name="Path 1791" d="M-84.493,24.967c0,.117-.008.233-.017.35a3.5,3.5,0,0,1-.358,1.232,3.287,3.287,0,0,1-.474.707,3.493,3.493,0,0,1-2.272,1.215,3.252,3.252,0,0,1-.408.025,3.255,3.255,0,0,1-.408-.025A3.529,3.529,0,0,1-90.7,27.256a3.285,3.285,0,0,1-.474-.707,3.5,3.5,0,0,1-.358-1.232c-.008-.116-.017-.233-.017-.35s.008-.233.017-.341a3.4,3.4,0,0,1,.358-1.232,3.143,3.143,0,0,1,.474-.716,3.529,3.529,0,0,1,2.272-1.215,3.253,3.253,0,0,1,.408-.025,3.25,3.25,0,0,1,.408.025,3.55,3.55,0,0,1,2.272,1.215,3.145,3.145,0,0,1,.474.716,3.4,3.4,0,0,1,.358,1.232C-84.5,24.734-84.493,24.851-84.493,24.967Z" transform="translate(100.226 -12.763)" fill="#fee51b"/>
        </g>
      </g>
    </g>
  </g>
</svg>
