<svg xmlns="http://www.w3.org/2000/svg" width="27" height="28" viewBox="0 0 27 28">
  <g id="New_Zealand" data-name="New Zealand" transform="translate(0 0.394)">
    <path id="Path_3478" data-name="Path 3478" d="M4,0H23a4,4,0,0,1,4,4V24a4,4,0,0,1-4,4H4a4,4,0,0,1-4-4V4A4,4,0,0,1,4,0Z" transform="translate(0 -0.394)" fill="#4586ff" opacity="0.45"/>
    <g id="Group_1817" data-name="Group 1817" transform="translate(1.356 1.356)">
      <g id="Group_1816" data-name="Group 1816">
        <g id="Group_1811" data-name="Group 1811">
          <g id="Group_1810" data-name="Group 1810">
            <g id="Group_1809" data-name="Group 1809">
              <path id="Path_1750" data-name="Path 1750" d="M-68.206-4.926V10.2a4.035,4.035,0,0,1-.329,1.546,4.879,4.879,0,0,1-4.532,3.1H-87.732a4.891,4.891,0,0,1-4.54-3.1,4.581,4.581,0,0,1-.337-1.793V-4.7a4.38,4.38,0,0,1,.074-.806,3.784,3.784,0,0,1,.263-1,4.243,4.243,0,0,1,.485-.888,1.3,1.3,0,0,1,.181-.271,2.98,2.98,0,0,1,.436-.485,3.617,3.617,0,0,1,.748-.609,4.69,4.69,0,0,1,2.69-.831h14.665A4.865,4.865,0,0,1-68.535-6.5,5.053,5.053,0,0,1-68.206-4.926Z" transform="translate(92.615 9.581)" fill="#00247d"/>
              <g id="Group_1808" data-name="Group 1808">
                <path id="Path_1751" data-name="Path 1751" d="M-92.611-8.591v2.747l2.743-2.747Z" transform="translate(92.611 16.826)" fill="#00247d"/>
                <path id="Path_1752" data-name="Path 1752" d="M-89.415-9.581v3.77l-2.929-2.929a4.745,4.745,0,0,1,2.721-.84Z" transform="translate(94.563 9.581)" fill="#00247d"/>
                <path id="Path_1753" data-name="Path 1753" d="M-89.938-7.408H-92.6a3.828,3.828,0,0,1,.266-1.007,4.294,4.294,0,0,1,.491-.9Z" transform="translate(92.681 11.536)" fill="#00247d"/>
                <path id="Path_1754" data-name="Path 1754" d="M-88.714-6.669V-9.416l-2.742,2.747Z" transform="translate(101.064 10.792)" fill="#00247d"/>
                <path id="Path_1755" data-name="Path 1755" d="M-87.984-9.581h-3.761v3.767Z" transform="translate(98.948 9.582)" fill="#00247d"/>
                <path id="Path_1756" data-name="Path 1756" d="M-88.714-5.844V-8.591h-2.742Z" transform="translate(101.064 16.826)" fill="#00247d"/>
                <path id="Path_1757" data-name="Path 1757" d="M-92.444-4.781h3.761V-8.549Z" transform="translate(93.83 17.138)" fill="#00247d"/>
                <path id="Path_1758" data-name="Path 1758" d="M-91.745-4.781h3.761l-3.761-3.768Z" transform="translate(98.948 17.138)" fill="#00247d"/>
                <path id="Path_1759" data-name="Path 1759" d="M-80.269-8.208l-2.738,2.754h2.738v4.111h-2.738L-80.269,1.4V1.87l-3.2-3.212h-.915l4.111,4.111h-1.381L-85.412-.993V2.768h-2.055V-.993l-3.77,3.761h-.449l4.111-4.111H-88.5L-92.61,2.768V1.4l2.738-2.746H-92.61v-3.3a4.432,4.432,0,0,1,.075-.816h2.663l-1.906-1.906a1.314,1.314,0,0,1,.183-.275l2.18,2.18h.924l-2.663-2.671a3.66,3.66,0,0,1,.757-.616l2.929,2.929v-3.77h2.055v3.77l3.753-3.77h.466L-85.3-5.453h.915l4.111-4.128h.008Z" transform="translate(92.615 9.581)" fill="#fff"/>
                <path id="Path_1760" data-name="Path 1760" d="M-89.384-6.735h-.924l-2.18-2.18a3.014,3.014,0,0,1,.441-.491Z" transform="translate(93.509 10.862)" fill="#cb142a"/>
                <path id="Path_1761" data-name="Path 1761" d="M-91.623-8.591l4.116,4.123h.012v-.912l-3.2-3.211Z" transform="translate(99.844 16.826)" fill="#cb142a"/>
                <path id="Path_1762" data-name="Path 1762" d="M-91.733-5.459h.922l4.116-4.122h-.923Z" transform="translate(99.038 9.582)" fill="#cb142a"/>
                <path id="Path_1763" data-name="Path 1763" d="M-87.573-8.591h-.922l-4.116,4.123h.922Z" transform="translate(92.611 16.826)" fill="#cb142a"/>
                <path id="Path_1764" data-name="Path 1764" d="M-80.261-4.639h-5.557V-9.581h-1.235v4.942h-5.557v2.471h5.557V2.775h1.235V-2.168h5.557Z" transform="translate(92.611 9.582)" fill="#cb142a"/>
              </g>
            </g>
          </g>
        </g>
        <g id="Group_1812" data-name="Group 1812" transform="translate(16.537 17.28)">
          <path id="Path_1765" data-name="Path 1765" d="M-88.781-4.826l-1.093.76.385-1.274-1.06-.8,1.331-.027.437-1.257.437,1.257,1.33.027-1.06.8.385,1.274Z" transform="translate(90.883 7.784)" fill="#cb142a"/>
          <path id="Path_1766" data-name="Path 1766" d="M-87.185-3.467l-1.3-.907-1.307.907.458-1.515-1.257-.957,1.581-.033.524-1.5.516,1.5,1.581.033-1.257.957Zm-1.3-1.19.882.616-.316-1.032.865-.649-1.082-.017-.349-1.024-.358,1.024-1.074.017.857.649-.316,1.032Z" transform="translate(90.589 7.47)" fill="#fff"/>
        </g>
        <g id="Group_1813" data-name="Group 1813" transform="translate(16.765 2.896)">
          <path id="Path_1767" data-name="Path 1767" d="M-88.934-6.845l-.985.685.348-1.148-.956-.725,1.2-.024.394-1.133.394,1.133,1.2.024-.955.725.347,1.148Z" transform="translate(90.861 9.542)" fill="#cb142a"/>
          <path id="Path_1768" data-name="Path 1768" d="M-87.447-5.563l-1.19-.832-1.2.832.424-1.39-1.157-.882,1.448-.025.483-1.373.474,1.373,1.448.025-1.157.882Zm-1.19-1.115.774.541-.275-.907.757-.574-.949-.017-.308-.89-.316.89-.949.017.757.574-.275.907Z" transform="translate(90.568 9.233)" fill="#fff"/>
        </g>
        <g id="Group_1814" data-name="Group 1814" transform="translate(13.079 8.528)">
          <path id="Path_1769" data-name="Path 1769" d="M-89.363-6.123l-1,.694.352-1.163-.969-.734,1.215-.025.4-1.148.4,1.148,1.215.025-.969.734.352,1.163Z" transform="translate(91.309 8.852)" fill="#cb142a"/>
          <path id="Path_1770" data-name="Path 1770" d="M-90.276-4.831l.424-1.406-1.165-.89,1.465-.025.483-1.39.483,1.39,1.465.025-1.165.89.424,1.406-1.207-.84Zm1.207-1.123.791.549-.283-.924.774-.583-.965-.017-.316-.907-.316.907-.965.017.766.583-.275.924Z" transform="translate(91.017 8.542)" fill="#fff"/>
        </g>
        <g id="Group_1815" data-name="Group 1815" transform="translate(20.157 7.291)">
          <path id="Path_1771" data-name="Path 1771" d="M-88.706-6.579l-.869.606.307-1.014-.845-.641,1.059-.022.348-1,.348,1,1.06.022-.845.641.307,1.014Z" transform="translate(90.451 9.006)" fill="#cb142a"/>
          <path id="Path_1772" data-name="Path 1772" d="M-89.488-5.373l.383-1.257-1.049-.8,1.315-.025.433-1.24.424,1.24,1.315.025-1.049.8.383,1.257-1.073-.749ZM-88.406-6.4l.657.458-.233-.774.641-.483-.8-.017-.266-.766-.266.766-.807.017.641.483-.233.774Z" transform="translate(90.154 8.693)" fill="#fff"/>
        </g>
      </g>
    </g>
  </g>
</svg>
