<svg id="Seychelles" xmlns="http://www.w3.org/2000/svg" width="27" height="27" viewBox="0 0 27 27">
  <path id="Path_3097" data-name="Path 3097" d="M4,0H23a4,4,0,0,1,4,4V23a4,4,0,0,1-4,4H4a4,4,0,0,1-4-4V4A4,4,0,0,1,4,0Z" fill="#4586ff" opacity="0.45"/>
  <g id="Group_1830" data-name="Group 1830" transform="translate(1.356 1.356)">
    <g id="Group_1829" data-name="Group 1829">
      <path id="Path_1792" data-name="Path 1792" d="M-83.158-14.574-92.611-.444v-9.2a5.1,5.1,0,0,1,.35-1.814,4.942,4.942,0,0,1,4.594-3.121Z" transform="translate(92.611 14.574)" fill="#043f85"/>
      <path id="Path_1793" data-name="Path 1793" d="M-68.2-11.232v9.016L-91.995,5.719a3.331,3.331,0,0,1-.271-.541,4.749,4.749,0,0,1-.345-1.8V3.014l23.25-17.377a4.4,4.4,0,0,1,.814,1.344A4.676,4.676,0,0,1-68.2-11.232Z" transform="translate(92.611 16.119)" fill="#d52827"/>
      <path id="Path_1794" data-name="Path 1794" d="M-69.375-12.818-92.611,4.824V-.444l9.331-14.13h10.193A4.812,4.812,0,0,1-69.375-12.818Z" transform="translate(92.611 14.574)" fill="#fbd759"/>
      <path id="Path_1795" data-name="Path 1795" d="M-68.751-12.881v5.334L-91.69-3.686a4.551,4.551,0,0,1-.846-1.14Z" transform="translate(93.16 26.663)" fill="#fff"/>
      <path id="Path_1796" data-name="Path 1796" d="M-69.505-12.24v.35a4.888,4.888,0,0,1-.345,1.822,4.859,4.859,0,0,1-4.525,3.121H-89.017a4.784,4.784,0,0,1-3.416-1.431Z" transform="translate(93.914 31.357)" fill="#00793d"/>
    </g>
  </g>
</svg>
