<svg id="Group_2027" data-name="Group 2027" xmlns="http://www.w3.org/2000/svg" width="40" height="40" viewBox="0 0 40 40">
  <rect id="Rectangle_95" data-name="Rectangle 95" width="40" height="40" rx="10" transform="translate(0 0)" fill="#4586ff" opacity="0.45"/>
  <g id="Group_1773" data-name="Group 1773" transform="translate(2.018 2.018)">
    <g id="Group_29" data-name="Group 29" transform="translate(0 0)">
      <path id="Path_6" data-name="Path 6" d="M-75.732,21.3a7.147,7.147,0,0,0-6.662,4.461,6.946,6.946,0,0,0-.506,2.6V49.625a7.008,7.008,0,0,0,.506,2.612A7.147,7.147,0,0,0-75.732,56.7h4.758V21.3Z" transform="translate(82.9 -21.297)" fill="#062493"/>
      <path id="Path_1723" data-name="Path 1723" d="M0-.016H13.143V35.39H0Z" transform="translate(11.74 0.017)" fill="#fff"/>
      <path id="Path_7" data-name="Path 7" d="M-69.488,25.758A7.159,7.159,0,0,0-76.149,21.3H-80.92V56.7h4.771a7.147,7.147,0,0,0,6.662-4.461,7.249,7.249,0,0,0,.494-2.612V28.358A7.185,7.185,0,0,0-69.488,25.758Z" transform="translate(104.419 -21.297)" fill="#ec2938"/>
    </g>
  </g>
</svg>
