<svg id="eye-open" xmlns="http://www.w3.org/2000/svg" width="20.078" height="12.973" viewBox="0 0 20.078 12.973">
  <path id="Path_3415" data-name="Path 3415" d="M725.521,72.208a12.136,12.136,0,0,1-7.37,5.778,10.4,10.4,0,0,1-5.7-.1.763.763,0,0,1-.094-.046c.332-.33.652-.652.98-.967a.21.21,0,0,1,.163-.024,9.46,9.46,0,0,0,8.309-2.172,12.279,12.279,0,0,0,2.263-2.485.2.2,0,0,0,0-.272,12.746,12.746,0,0,0-2.634-2.775c-.057-.044-.113-.088-.169-.133a.046.046,0,0,1-.013-.02l.9-.906a13.021,13.021,0,0,1,3.365,3.812Z" transform="translate(-705.443 -65.565)" fill="#acacac"/>
  <g id="Group_3230" data-name="Group 3230">
    <path id="Path_3407" data-name="Path 3407" d="M758.638,376.315a2.873,2.873,0,0,1,.783-1.171,18.016,18.016,0,0,1,4.545-3.746,9.321,9.321,0,0,1,5.259-1.316,9.56,9.56,0,0,1,3.87,1.157,17.39,17.39,0,0,1,4.33,3.361c.209.216.411.439.615.659a2.535,2.535,0,0,1,.676,1.057v.471a2.861,2.861,0,0,1-.758,1.143,17.421,17.421,0,0,1-4.749,3.864,9.573,9.573,0,0,1-4.4,1.242,9.025,9.025,0,0,1-3.957-.9,16.348,16.348,0,0,1-4.987-3.7c-.194-.2-.379-.415-.567-.623a2.51,2.51,0,0,1-.654-1.025Zm10.033-5.021a7.659,7.659,0,0,0-3.075.682,16.052,16.052,0,0,0-5.649,4.444c-.089.1-.067.177.013.271a16.835,16.835,0,0,0,4.964,4.113,8.316,8.316,0,0,0,3.375.988,7.349,7.349,0,0,0,3.358-.629,15.959,15.959,0,0,0,5.754-4.495c.083-.1.061-.169-.013-.256a16.7,16.7,0,0,0-5.065-4.17,8.047,8.047,0,0,0-3.662-.949" transform="translate(-758.638 -370.063)" fill="#dedede"/>
    <path id="Path_3408" data-name="Path 3408" d="M876.6,415.729a4.323,4.323,0,1,1-4.318-4.329,4.319,4.319,0,0,1,4.318,4.329m-7.416,0a3.093,3.093,0,1,0,3.089-3.1,3.106,3.106,0,0,0-3.089,3.1" transform="translate(-862.237 -409.239)" fill="#dedede"/>
  </g>
</svg>
