<svg id="eye" xmlns="http://www.w3.org/2000/svg" width="19.338" height="11.826" viewBox="0 0 19.338 11.826">
  <path id="Path_3161" data-name="Path 3161" d="M279.976,743.952a19.271,19.271,0,0,1,3-3.1,19.271,19.271,0,0,0-3,3.1,18.328,18.328,0,0,0,1.917,2.131A18.328,18.328,0,0,1,279.976,743.952Z" transform="translate(-279.976 -738.039)" fill="#535353"/>
  <path id="Path_3162" data-name="Path 3162" d="M408.936,683.835a8.128,8.128,0,0,0-7.527,0,8.128,8.128,0,0,1,7.527,0Z" transform="translate(-395.504 -682.911)" fill="#535353"/>
  <path id="Path_3163" data-name="Path 3163" d="M585.966,718.734c.262.17.515.347.758.527C586.481,719.081,586.228,718.9,585.966,718.734Z" transform="translate(-571.086 -716.992)" fill="#535353"/>
  <path id="Path_3164" data-name="Path 3164" d="M663.908,789.154c.387-.45.6-.738.6-.738s-.238-.325-.671-.822c.433.5.671.822.671.822S664.294,788.7,663.908,789.154Z" transform="translate(-645.168 -782.503)" fill="#535353"/>
  <path id="Path_3165" data-name="Path 3165" d="M357.343,880.369q-.135-.1-.267-.192Q357.208,880.274,357.343,880.369Z" transform="translate(-353.327 -870.584)" fill="#535353"/>
  <path id="Path_3166" data-name="Path 3166" d="M382.663,897.079l-.193-.111Z" transform="translate(-377.486 -886.558)" fill="#535353"/>
  <path id="Path_3167" data-name="Path 3167" d="M601.553,729.573q.183.135.358.273Q601.736,729.708,601.553,729.573Z" transform="translate(-585.915 -727.304)" fill="#535353"/>
  <path id="Path_3168" data-name="Path 3168" d="M625.975,749.4q.156.138.3.275Q626.131,749.536,625.975,749.4Z" transform="translate(-609.149 -746.165)" fill="#535353"/>
  <path id="Path_3169" data-name="Path 3169" d="M660.063,783.322q.1.108.183.208Q660.16,783.43,660.063,783.322Z" transform="translate(-641.579 -778.439)" fill="#535353"/>
  <path id="Path_3170" data-name="Path 3170" d="M632.224,755.046c.2.182.383.361.557.534C632.607,755.407,632.421,755.228,632.224,755.046Z" transform="translate(-615.094 -751.538)" fill="#535353"/>
  <path id="Path_3171" data-name="Path 3171" d="M619.392,743.706q.164.139.32.277Q619.556,743.845,619.392,743.706Z" transform="translate(-602.886 -740.75)" fill="#535353"/>
  <path id="Path_3172" data-name="Path 3172" d="M643.67,766.029q.13.13.251.255Q643.8,766.159,643.67,766.029Z" transform="translate(-625.983 -761.987)" fill="#535353"/>
  <path id="Path_3173" data-name="Path 3173" d="M648.842,771.276c.2.208.384.406.546.586C649.226,771.682,649.044,771.484,648.842,771.276Z" transform="translate(-630.904 -766.979)" fill="#535353"/>
  <path id="Path_3174" data-name="Path 3174" d="M325.92,854.448q-.141-.125-.275-.248Q325.779,854.323,325.92,854.448Z" transform="translate(-323.424 -845.87)" fill="#535353"/>
  <path id="Path_3175" data-name="Path 3175" d="M332.411,860.282q-.193-.161-.376-.322Q332.217,860.121,332.411,860.282Z" transform="translate(-329.503 -851.35)" fill="#535353"/>
  <path id="Path_3176" data-name="Path 3176" d="M343.762,869.883q-.109-.085-.214-.171Q343.654,869.8,343.762,869.883Z" transform="translate(-340.456 -860.628)" fill="#535353"/>
  <path id="Path_3177" data-name="Path 3177" d="M638.477,842.973q-.128.128-.265.26Q638.349,843.1,638.477,842.973Z" transform="translate(-620.791 -835.189)" fill="#535353"/>
  <path id="Path_3178" data-name="Path 3178" d="M649.388,825.68c-.161.18-.344.377-.546.586C649.044,826.057,649.226,825.86,649.388,825.68Z" transform="translate(-630.904 -818.737)" fill="#535353"/>
  <path id="Path_3179" data-name="Path 3179" d="M608.918,735.182q.263.206.509.414Q609.181,735.389,608.918,735.182Z" transform="translate(-592.921 -732.64)" fill="#535353"/>
  <path id="Path_3180" data-name="Path 3180" d="M341.624,703.8a14.468,14.468,0,0,1,2.907-1.894A14.468,14.468,0,0,0,341.624,703.8Z" transform="translate(-338.626 -700.985)" fill="#535353"/>
  <path id="Path_3181" data-name="Path 3181" d="M556.193,701.909a12.84,12.84,0,0,1,1.448.818A12.84,12.84,0,0,0,556.193,701.909Z" transform="translate(-542.76 -700.985)" fill="#535353"/>
  <path id="Path_3182" data-name="Path 3182" d="M406.21,909.32c-.105-.044-.21-.088-.313-.135C406,909.232,406.1,909.276,406.21,909.32Z" transform="translate(-399.773 -898.181)" fill="#535353"/>
  <path id="Path_3183" data-name="Path 3183" d="M319.887,848.788q-.139-.129-.27-.255Q319.748,848.659,319.887,848.788Z" transform="translate(-317.689 -840.479)" fill="#535353"/>
  <path id="Path_3184" data-name="Path 3184" d="M349.787,874.669q-.138-.1-.273-.208Q349.648,874.565,349.787,874.669Z" transform="translate(-346.132 -865.146)" fill="#535353"/>
  <path id="Path_3185" data-name="Path 3185" d="M348.024,873.295l-.076-.06Z" transform="translate(-344.642 -863.979)" fill="#535353"/>
  <path id="Path_3186" data-name="Path 3186" d="M574.749,882.194c-.372.267-.765.525-1.176.763C573.984,882.719,574.377,882.461,574.749,882.194Z" transform="translate(-559.295 -872.503)" fill="#535353"/>
  <path id="Path_3187" data-name="Path 3187" d="M612.823,865.3q-.164.139-.336.277Q612.659,865.435,612.823,865.3Z" transform="translate(-596.317 -856.427)" fill="#535353"/>
  <path id="Path_3188" data-name="Path 3188" d="M605.624,870.988q-.172.138-.351.275Q605.452,871.126,605.624,870.988Z" transform="translate(-589.454 -861.842)" fill="#535353"/>
  <path id="Path_3189" data-name="Path 3189" d="M355.218,878.8l-.095-.07Z" transform="translate(-351.469 -869.21)" fill="#535353"/>
  <path id="Path_3190" data-name="Path 3190" d="M629.438,851.163q-.144.135-.3.273Q629.294,851.3,629.438,851.163Z" transform="translate(-612.162 -842.981)" fill="#535353"/>
  <path id="Path_3191" data-name="Path 3191" d="M635.365,848.315l-.146.139Z" transform="translate(-617.944 -840.271)" fill="#535353"/>
  <path id="Path_3192" data-name="Path 3192" d="M598.127,876.636q-.179.136-.365.27Q597.948,876.772,598.127,876.636Z" transform="translate(-582.308 -867.215)" fill="#535353"/>
  <path id="Path_3193" data-name="Path 3193" d="M363.541,884.75c-.335-.2-.658-.407-.968-.625C362.882,884.343,363.205,884.553,363.541,884.75Z" transform="translate(-358.556 -874.341)" fill="#535353"/>
  <path id="Path_3194" data-name="Path 3194" d="M387.39,899.743c-.324-.147-.64-.309-.946-.483C386.75,899.433,387.066,899.6,387.39,899.743Z" transform="translate(-381.266 -888.739)" fill="#535353"/>
  <path id="Path_3195" data-name="Path 3195" d="M339.947,866.744l-.184-.152Z" transform="translate(-336.856 -857.659)" fill="#535353"/>
  <path id="Path_3196" data-name="Path 3196" d="M552.769,897.89c-.342.2-.7.383-1.063.549C552.072,898.273,552.427,898.089,552.769,897.89Z" transform="translate(-538.492 -887.435)" fill="#535353"/>
  <path id="Path_3197" data-name="Path 3197" d="M623.037,856.772q-.152.137-.312.276Q622.885,856.91,623.037,856.772Z" transform="translate(-606.057 -848.317)" fill="#535353"/>
  <path id="Path_3198" data-name="Path 3198" d="M412.336,911.22a7.966,7.966,0,0,0,6.557-.038,7.966,7.966,0,0,1-6.557.038Z" transform="translate(-405.899 -900.081)" fill="#535353"/>
  <path id="Path_3199" data-name="Path 3199" d="M662,819.867l.162-.186Z" transform="translate(-643.424 -813.03)" fill="#535353"/>
  <path id="Path_3200" data-name="Path 3200" d="M319.4,848.326l-.011-.011Z" transform="translate(-317.473 -840.271)" fill="#535353"/>
  <path id="Path_3201" data-name="Path 3201" d="M331.328,859.336l-.036-.032Z" transform="translate(-328.796 -850.726)" fill="#535353"/>
  <path id="Path_3202" data-name="Path 3202" d="M325.2,853.789l-.023-.021Z" transform="translate(-322.978 -845.459)" fill="#535353"/>
  <path id="Path_3203" data-name="Path 3203" d="M299.314,688.824s-.238-.325-.671-.822q-.087-.1-.183-.208c-.161-.18-.344-.377-.546-.586q-.121-.125-.252-.255c-.174-.173-.36-.352-.557-.534q-.148-.136-.3-.275t-.32-.277q-.246-.208-.509-.414-.175-.137-.358-.273c-.243-.18-.5-.357-.758-.527a12.832,12.832,0,0,0-1.448-.818,8.128,8.128,0,0,0-7.527,0,14.472,14.472,0,0,0-2.907,1.894,19.272,19.272,0,0,0-3,3.1,18.328,18.328,0,0,0,1.917,2.131l.011.011q.131.126.27.255l.023.021q.134.123.275.248l.036.032q.182.161.376.322l.184.152q.106.086.214.171l.076.06q.134.1.273.208l.095.07q.132.1.267.192c.309.217.632.427.968.625l.193.111c.306.173.622.336.946.483.1.047.208.091.313.135a7.966,7.966,0,0,0,6.557-.038l.221-.1c.366-.166.721-.351,1.063-.549.411-.238.8-.5,1.176-.763q.186-.134.365-.27t.351-.275q.172-.138.336-.277l.162-.139q.16-.138.312-.276t.3-.273l.146-.138q.137-.132.265-.26t.252-.255c.2-.208.384-.406.546-.586l.094-.106.162-.186C299.1,689.113,299.314,688.824,299.314,688.824Zm-3.888,1.811a12.934,12.934,0,0,1-2.722,1.79,6.569,6.569,0,0,1-6.118,0,12.935,12.935,0,0,1-2.722-1.79A18.5,18.5,0,0,1,282,688.823a18.547,18.547,0,0,1,1.816-1.767c1.4-1.181,3.545-2.589,5.833-2.589a7.158,7.158,0,0,1,3.059.756,12.934,12.934,0,0,1,2.722,1.79,18.5,18.5,0,0,1,1.866,1.811A18.512,18.512,0,0,1,295.426,690.635Z" transform="translate(-279.976 -682.911)" fill="#535353"/>
  <path id="Path_3204" data-name="Path 3204" d="M452.21,748.094a2.766,2.766,0,0,0-2.865,0,2.766,2.766,0,0,1,2.865,0Z" transform="translate(-441.108 -744.544)" fill="#535353"/>
  <path id="Path_3205" data-name="Path 3205" d="M423.324,755.918a2.763,2.763,0,0,0-.608,4.225,2.763,2.763,0,0,1,.608-4.225Z" transform="translate(-415.088 -752.368)" fill="#535353"/>
  <path id="Path_3206" data-name="Path 3206" d="M527.884,775.913a2.761,2.761,0,0,1,.014,2.756,2.761,2.761,0,0,0-.014-2.756Z" transform="translate(-515.828 -771.39)" fill="#535353"/>
  <path id="Path_3207" data-name="Path 3207" d="M520.851,766.3q.089.1.169.2Q520.94,766.4,520.851,766.3Z" transform="translate(-509.137 -762.25)" fill="#535353"/>
  <path id="Path_3208" data-name="Path 3208" d="M522.427,840.176l-.029.036Z" transform="translate(-510.609 -832.528)" fill="#535353"/>
  <path id="Path_3209" data-name="Path 3209" d="M512.79,758.979q.106.08.2.169Q512.9,759.059,512.79,758.979Z" transform="translate(-501.468 -755.28)" fill="#535353"/>
  <path id="Path_3210" data-name="Path 3210" d="M517.184,762.638q-.089-.1-.187-.187Q517.1,762.54,517.184,762.638Z" transform="translate(-505.471 -758.583)" fill="#535353"/>
  <path id="Path_3211" data-name="Path 3211" d="M523.139,836.262c-.044.066-.092.129-.141.19C523.048,836.391,523.1,836.328,523.139,836.262Z" transform="translate(-511.18 -828.804)" fill="#535353"/>
  <path id="Path_3212" data-name="Path 3212" d="M525.907,772.74c.034.05.065.1.1.154C525.972,772.842,525.941,772.79,525.907,772.74Z" transform="translate(-513.947 -768.372)" fill="#535353"/>
  <path id="Path_3213" data-name="Path 3213" d="M526.017,832.59c-.035.061-.071.121-.11.179C525.946,832.711,525.982,832.651,526.017,832.59Z" transform="translate(-513.947 -825.311)" fill="#535353"/>
  <path id="Path_3214" data-name="Path 3214" d="M438.88,841.9a2.755,2.755,0,0,1-2.041-.9,2.762,2.762,0,0,0,4.161-.091A2.756,2.756,0,0,1,438.88,841.9Z" transform="translate(-429.211 -833.227)" fill="#535353"/>
  <path id="Path_3215" data-name="Path 3215" d="M427.143,749.066c-.031-.052-.062-.1-.1-.154s-.051-.073-.077-.108q-.08-.106-.169-.2t-.187-.187q-.1-.089-.2-.169t-.22-.149a2.763,2.763,0,1,0,.688,4.133l.029-.036c.05-.061.1-.125.141-.19s.075-.118.11-.179a2.76,2.76,0,0,0-.014-2.756Zm-2.387,2.6a1.206,1.206,0,1,1,1.206-1.206A1.208,1.208,0,0,1,424.757,751.663Z" transform="translate(-415.088 -744.544)" fill="#535353"/>
</svg>
