<svg id="warning" xmlns="http://www.w3.org/2000/svg" xmlns:xlink="http://www.w3.org/1999/xlink" width="10.634" height="9.727" viewBox="0 0 10.634 9.727">
  <defs>
    <clipPath id="clip-path">
      <rect id="Rectangle_938" data-name="Rectangle 938" width="10.634" height="9.727" fill="red"/>
    </clipPath>
  </defs>
  <g id="Group_3265" data-name="Group 3265" clip-path="url(#clip-path)">
    <path id="Path_3419" data-name="Path 3419" d="M0,7.669A3.3,3.3,0,0,1,.546,6.383c.2-.344.4-.689.6-1.033Q2.4,3.18,3.649,1.009A1.912,1.912,0,0,1,5,.031,1.853,1.853,0,0,1,6.854.8c.393.635.759,1.287,1.133,1.933Q9.17,4.779,10.349,6.825A1.9,1.9,0,0,1,8.7,9.726c-1,0-1.994,0-2.992,0H1.941a1.861,1.861,0,0,1-1.5-.689,1.9,1.9,0,0,1-.419-.957C.014,8.054.006,8.028,0,8V7.669m5.3,1.2H8.665A1.08,1.08,0,0,0,9.4,8.627a1.039,1.039,0,0,0,.217-1.36Q8.3,4.993,6.989,2.721c-.272-.47-.534-.946-.822-1.406A.951.951,0,0,0,5.215.869a1.014,1.014,0,0,0-.814.553q-1.326,2.3-2.657,4.6c-.261.452-.532.9-.776,1.36a.962.962,0,0,0,.067,1.025,1.022,1.022,0,0,0,.921.463H5.3" transform="translate(0 -0.001)" fill="red"/>
    <path id="Path_3420" data-name="Path 3420" d="M174.426,109.381l-.126,2.169a2.5,2.5,0,0,1-.02.31.4.4,0,0,1-.4.318.382.382,0,0,1-.393-.328c-.032-.278-.042-.558-.059-.838-.034-.549-.065-1.1-.1-1.646a.578.578,0,0,1,.627-.659.538.538,0,0,1,.468.493c0,.058,0,.117,0,.182" transform="translate(-168.568 -105.717)" fill="red"/>
    <path id="Path_3421" data-name="Path 3421" d="M173.859,249.459a.548.548,0,0,1,.552-.541.544.544,0,0,1-.008,1.088.545.545,0,0,1-.544-.548" transform="translate(-169.083 -242.082)" fill="red"/>
  </g>
</svg>
