<svg xmlns="http://www.w3.org/2000/svg" width="90" height="19" viewBox="0 0 90 19">
  <g id="Group_2729" data-name="Group 2729" transform="translate(-955 -668)">
    <rect id="Rectangle_773" data-name="Rectangle 773" width="90" height="19" rx="2" transform="translate(955 668)" fill="#14b46b"/>
    <g id="Group_2577" data-name="Group 2577" transform="translate(959.5 673.5)">
      <path id="Path_3265" data-name="Path 3265" d="M362.543,477.612a2.627,2.627,0,0,1-.448-.176.943.943,0,0,1-.457-.856q0-2.079,0-4.158a1.179,1.179,0,0,1,.031-.275.992.992,0,0,1,.957-.756c.589-.012,1.179-.007,1.769,0a.334.334,0,0,1,.358.33.338.338,0,0,1-.367.322c-.549,0-1.1,0-1.646,0-.275,0-.408.125-.408.383q0,2.075,0,4.149c0,.262.128.385.4.385h6.8c.276,0,.4-.123.4-.385q0-2.075,0-4.149c0-.258-.133-.382-.408-.382q-.818,0-1.637,0a.354.354,0,0,1-.326-.162.321.321,0,0,1,.26-.489c.031,0,.063,0,.094,0,.539,0,1.078,0,1.618,0a1.013,1.013,0,0,1,1.093,1.036q0,1.205,0,2.411,0,.869,0,1.739a1,1,0,0,1-.881,1.028.087.087,0,0,0-.024.013Z" transform="translate(-361.638 -468.612)" fill="#fff"/>
      <path id="Path_3266" data-name="Path 3266" d="M460.332,348a2.429,2.429,0,0,1,.282.21c.6.591.863.765,1.458,1.358a.422.422,0,0,1,.148.292.365.365,0,0,1-.2.355.361.361,0,0,1-.406-.027.831.831,0,0,1-.1-.091c-.37-.369-.82-.75-.839-.783l-.043.027v.12c0,2.043,0,2.285,0,4.328a1.05,1.05,0,0,1-.008.178.381.381,0,0,1-.754-.042c0-.049,0-.1,0-.147,0-2.036,0-2.271,0-4.307v-.151c-.042.038-.069.061-.094.086-.379.379-.356.311-.734.691a.4.4,0,0,1-.347.139.384.384,0,0,1-.233-.645c.153-.159.311-.313.467-.469.453-.453.5-.462.958-.912a2.463,2.463,0,0,1,.281-.21Z" transform="translate(-455.748 -348)" fill="#fff"/>
    </g>
  </g>
</svg>
