<svg id="chinise" xmlns="http://www.w3.org/2000/svg" width="40" height="40" viewBox="0 0 40 40">
  <path id="Path_3500" data-name="Path 3500" d="M10,0H30A10,10,0,0,1,40,10V30A10,10,0,0,1,30,40H10A10,10,0,0,1,0,30V10A10,10,0,0,1,10,0Z" transform="translate(0 0)" fill="#4586ff" opacity="0.45"/>
  <g id="Group_1767" data-name="Group 1767" transform="translate(2.018 2.018)">
    <g id="Group_608" data-name="Group 608" transform="translate(5.043 7.403)">
      <path id="Path_485" data-name="Path 485" d="M-59.566,104.387h-15.8a6.905,6.905,0,0,0-7.115,6.664v14.79a6.905,6.905,0,0,0,7.115,6.664h15.8a6.9,6.9,0,0,0,7.1-6.664v-14.79a6.9,6.9,0,0,0-7.1-6.664Z" transform="translate(82.483 -104.387)" fill="gray"/>
    </g>
    <g id="Group_610" data-name="Group 610" transform="translate(0 0)">
      <path id="Path_486" data-name="Path 486" d="M-47.474,110.831v21.243a7.268,7.268,0,0,1-.5,2.612,7.087,7.087,0,0,1-6.6,4.473H-75.815a7.071,7.071,0,0,1-6.584-4.473,6.791,6.791,0,0,1-.5-2.612V110.831a6.689,6.689,0,0,1,.5-2.6,7.092,7.092,0,0,1,6.584-4.5h21.243a7.109,7.109,0,0,1,6.6,4.5A7.154,7.154,0,0,1-47.474,110.831Z" transform="translate(82.9 -103.734)" fill="#dd2911"/>
      <g id="Group_609" data-name="Group 609" transform="translate(2.969 3.803)">
        <path id="Path_487" data-name="Path 487" d="M-77.5,104.183l1.217,3.744h3.936l-3.184,2.314,1.217,3.744-3.186-2.314-3.186,2.314,1.217-3.744-3.184-2.314h3.937Z" transform="translate(82.655 -102.56)" fill="#fedd19"/>
        <path id="Path_488" data-name="Path 488" d="M-79.366,104.048l-.117,1.3,1.2.513-1.272.29-.117,1.3-.67-1.121-1.272.29.859-.983-.669-1.12,1.2.513Z" transform="translate(94.182 -104.048)" fill="#fedd19"/>
        <path id="Path_489" data-name="Path 489" d="M-78.264,104.717l-.613,1.152.906.94-1.286-.227-.614,1.151-.18-1.293-1.286-.227,1.174-.571-.18-1.293.906.94Z" transform="translate(97.266 -100.714)" fill="#fedd19"/>
        <path id="Path_490" data-name="Path 490" d="M-77.917,105.968l-1.033.8.44,1.229-1.079-.735-1.032.8.365-1.253-1.079-.734,1.3-.04.365-1.253.441,1.229Z" transform="translate(97.31 -95.941)" fill="#fedd19"/>
        <path id="Path_491" data-name="Path 491" d="M-78.315,106.851l-1.259.346-.06,1.3-.717-1.091-1.259.346.816-1.02-.717-1.091,1.22.461.816-1.02-.061,1.3Z" transform="translate(94.231 -92.531)" fill="#fedd19"/>
      </g>
    </g>
  </g>
</svg>
