<svg id="Mal" xmlns="http://www.w3.org/2000/svg" width="40" height="40" viewBox="0 0 40 40">
  <rect id="Rectangle_95" data-name="Rectangle 95" width="40" height="40" rx="10" transform="translate(0 0)" fill="#4586ff" opacity="0.45"/>
  <g id="Group_1775" data-name="Group 1775" transform="translate(2.018 2.018)">
    <g id="Group_675" data-name="Group 675" transform="translate(5.023 7.512)">
      <path id="Path_1208" data-name="Path 1208" d="M-59.551,52.864H-75.363a6.894,6.894,0,0,0-7.12,6.626V74.235a6.894,6.894,0,0,0,7.12,6.626h15.812a6.891,6.891,0,0,0,7.108-6.626V59.49a6.891,6.891,0,0,0-7.108-6.626Z" transform="translate(82.483 -52.864)" fill="gray"/>
    </g>
    <g id="Group_679" data-name="Group 679">
      <g id="Group_677" data-name="Group 677">
        <g id="Group_676" data-name="Group 676">
          <path id="Path_1209" data-name="Path 1209" d="M-47.475,54.671v.518H-82.9v-.518a6.9,6.9,0,0,1,.3-2.036h34.8A6.915,6.915,0,0,1-47.475,54.671Z" transform="translate(82.9 -47.527)" fill="#cb0202"/>
          <rect id="Rectangle_85" data-name="Rectangle 85" width="35.419" height="2.556" transform="translate(0.003 17.681)" fill="#fff"/>
          <rect id="Rectangle_86" data-name="Rectangle 86" width="35.419" height="2.556" transform="translate(0.003 20.21)" fill="#cb0202"/>
          <rect id="Rectangle_87" data-name="Rectangle 87" width="35.419" height="2.558" transform="translate(0.003 22.739)" fill="#fff"/>
          <path id="Path_1210" data-name="Path 1210" d="M-50.72,54.968a6.953,6.953,0,0,1-5.409,2.554H-77.351a6.953,6.953,0,0,1-5.41-2.554Z" transform="translate(84.447 -22.109)" fill="#fff"/>
          <path id="Path_1211" data-name="Path 1211" d="M-48.077,54.756a3.244,3.244,0,0,1-.179.578,6.623,6.623,0,0,1-1.181,1.976H-81.5a6.59,6.59,0,0,1-1.169-1.976c-.072-.193-.143-.373-.2-.578Z" transform="translate(83.176 -24.451)" fill="#cb0202"/>
          <path id="Path_1212" data-name="Path 1212" d="M-47.475,54.543v.53a6.978,6.978,0,0,1-.322,2.036H-82.6a6.954,6.954,0,0,1-.3-2.036v-.53Z" transform="translate(82.9 -26.804)" fill="#fff"/>
          <rect id="Rectangle_88" data-name="Rectangle 88" width="35.419" height="2.556" transform="translate(0.003 25.27)" fill="#cb0202"/>
          <path id="Path_1213" data-name="Path 1213" d="M-50.686,54.765H-82.762a7.056,7.056,0,0,1,5.433-2.554h21.221A7,7,0,0,1-50.686,54.765Z" transform="translate(84.424 -52.211)" fill="#cb0202"/>
          <path id="Path_1214" data-name="Path 1214" d="M-48.077,54.977h-34.8c.06-.2.131-.41.2-.6a6.926,6.926,0,0,1,1.145-1.952h32.1a6.723,6.723,0,0,1,1.169,1.952A3.5,3.5,0,0,1-48.077,54.977Z" transform="translate(83.176 -49.869)" fill="#fff"/>
          <rect id="Rectangle_89" data-name="Rectangle 89" width="35.419" height="2.556" transform="translate(0.003 7.583)" fill="#fff"/>
          <rect id="Rectangle_90" data-name="Rectangle 90" width="35.419" height="2.556" transform="translate(0.003 10.112)" fill="#cb0202"/>
          <rect id="Rectangle_91" data-name="Rectangle 91" width="35.419" height="2.556" transform="translate(0.003 12.641)" fill="#fff"/>
          <rect id="Rectangle_92" data-name="Rectangle 92" width="35.419" height="2.538" transform="translate(0.003 15.17)" fill="#cb0202"/>
        </g>
        <path id="Path_1215" data-name="Path 1215" d="M-65.023,52.211V72.642H-82.9V59.355a6.832,6.832,0,0,1,.3-2.036c.06-.2.133-.41.2-.6a6.91,6.91,0,0,1,1.156-1.952,7.165,7.165,0,0,1,5.493-2.554Z" transform="translate(82.9 -52.211)" fill="#040264"/>
      </g>
      <g id="Group_678" data-name="Group 678" transform="translate(1.988 5.108)">
        <path id="Path_1216" data-name="Path 1216" d="M-76.362,62.26a4.519,4.519,0,0,1-4.517-4.518,4.519,4.519,0,0,1,4.517-4.518,4.669,4.669,0,0,1,1.6.289,5.1,5.1,0,0,0-2.867-.879,5.11,5.11,0,0,0-5.108,5.108,5.11,5.11,0,0,0,5.108,5.108,5.1,5.1,0,0,0,2.867-.879A4.667,4.667,0,0,1-76.362,62.26Z" transform="translate(82.735 -52.635)" fill="#fecb17"/>
        <path id="Path_1217" data-name="Path 1217" d="M-78.089,52.706l.449,2.277,1.394-1.855-.582,2.245,2.06-1.067-1.5,1.772,2.32-.067-2.12.946,2.12.946-2.32-.067,1.5,1.771-2.06-1.067.582,2.247-1.394-1.856-.449,2.277-.451-2.277-1.394,1.856.582-2.247-2.06,1.067,1.5-1.771-2.319.067,2.119-.946-2.119-.946,2.319.067-1.5-1.772,2.06,1.067-.582-2.245,1.394,1.855Z" transform="translate(88.296 -51.849)" fill="#fecb17"/>
      </g>
    </g>
  </g>
</svg>
