<svg id="arabic" xmlns="http://www.w3.org/2000/svg" width="40" height="40" viewBox="0 0 40 40">
  <path id="Path_3503" data-name="Path 3503" d="M10,0H30A10,10,0,0,1,40,10V30A10,10,0,0,1,30,40H10A10,10,0,0,1,0,30V10A10,10,0,0,1,10,0Z" transform="translate(0 0)" fill="#4586ff" opacity="0.45"/>
  <g id="Group_1770" data-name="Group 1770" transform="translate(2.018 2.018)">
    <g id="Group_658" data-name="Group 658" transform="translate(5.023 7.512)">
      <path id="Path_860" data-name="Path 860" d="M-59.551-8.965H-75.363a6.9,6.9,0,0,0-7.12,6.638V12.406a6.9,6.9,0,0,0,7.12,6.638h15.812a6.893,6.893,0,0,0,7.108-6.638V-2.327a6.893,6.893,0,0,0-7.108-6.638Z" transform="translate(82.483 8.965)" fill="gray"/>
    </g>
    <g id="Group_662" data-name="Group 662">
      <path id="Path_861" data-name="Path 861" d="M-47.475-2.533V18.722a6.96,6.96,0,0,1-.5,2.6,7.069,7.069,0,0,1-6.584,4.485H-75.815A7.069,7.069,0,0,1-82.4,21.322a6.961,6.961,0,0,1-.5-2.6V-2.533a6.961,6.961,0,0,1,.5-2.6,7.081,7.081,0,0,1,6.584-4.485H-54.56a7.081,7.081,0,0,1,6.584,4.485A6.96,6.96,0,0,1-47.475-2.533Z" transform="translate(82.9 9.618)" fill="#006b35"/>
      <g id="Group_661" data-name="Group 661" transform="translate(4.498 8.376)">
        <path id="Path_862" data-name="Path 862" d="M-63.275-6.752l-.154-.06c-.166-.012-.319,0-.473,0-.177,0-.355,0-.532-.012h-1.077l-.343-.024V-6.9c0-.072.083-.06.142-.145a.246.246,0,0,0-.2-.3h-.047l-.024-.06a.177.177,0,0,0-.3-.12.262.262,0,0,0-.083.313.3.3,0,0,0,.047.181l.035.181-15.936-.193A2.154,2.154,0,0,0-80.252-6.03h13.924a2.367,2.367,0,0,0,.047.506,2.078,2.078,0,0,0,.095.289.237.237,0,0,0,.3.145.253.253,0,0,0,.142-.169H-63.8l.106.1.083.084c.118.1.225.06.355.06.189,0,.4-.169.4-.916A.886.886,0,0,0-63.275-6.752Zm-.58,1.072c-.083.084-.615.072-.615.072s-.083-.2-.248-.2c-.142,0-.237.133-.272.169l-.816.012a.333.333,0,0,1,0-.361h1.9S-63.76-5.777-63.855-5.68Z" transform="translate(85.958 23.69)" fill="#fff"/>
        <g id="Group_660" data-name="Group 660">
          <path id="Path_863" data-name="Path 863" d="M-82.025-8.314c-.084-.024-.349.458-.458.988a1.28,1.28,0,0,0,0,.687c.024.1.145.542.434.566.241.024.434-.265.506-.47.084-.229.036-.494-.048-.518-.06-.024-.108.12-.265.133a.21.21,0,0,1-.157-.036c-.1-.072-.048-.277-.024-.41A1.788,1.788,0,0,0-82.025-8.314Z" transform="translate(82.527 15.458)" fill="#fff"/>
          <path id="Path_864" data-name="Path 864" d="M-80.39-8.227c.012-.1-.217-.241-.434-.277a1.02,1.02,0,0,0-.566.1,2.383,2.383,0,0,0-1.036,1.06c-.072.12-.072.145-.06.169.1.157,1.373-.711,1.976-.952C-80.475-8.143-80.39-8.167-80.39-8.227Z" transform="translate(82.903 13.263)" fill="#fff"/>
          <path id="Path_865" data-name="Path 865" d="M-82.216-8.247c-.1-.108-.277-.325-.241-.482a.22.22,0,0,1,.181-.157c.169-.048.337.157.361.181a.919.919,0,0,1,.06.843c-.048.12-.145.265-.193.253s-.06-.217-.06-.277c-.012-.108.012-.169-.036-.253Z" transform="translate(83.247 9.078)" fill="#fff"/>
          <path id="Path_866" data-name="Path 866" d="M-82.48-7.545a3.1,3.1,0,0,0,0,.855c.1.518,0,.494.108.879.084.289.169.566.4.651a.479.479,0,0,0,.337-.036c.265-.133.313-.518.337-.7.036-.313-.048-.41.036-.675.06-.169.169-.373.217-.361.1.024,0,.554.1,1.4.036.361.084.53.217.614.169.108.373.036.53.193a.508.508,0,0,1,.12.241A6.963,6.963,0,0,1-80.01-3.04c0,.638.1.687.12.687.12.036.289-.181.373-.313a1.87,1.87,0,0,0,.157-1,6.181,6.181,0,0,0-.072-1c-.048-.289-.108-.53.024-.663a.377.377,0,0,1,.241-.072c.181,0,.229.12.422.193a.838.838,0,0,0,.59-.072.921.921,0,0,0,.434-.361.971.971,0,0,0,.084-.759,3.161,3.161,0,0,0-.193-.735l-.012-.2.108-.036c.024-.024.048-.06.036-.157a.779.779,0,0,0-.193-.458c-.084-.1-.337-.289-.518-.2s-.193.349-.2.47a1.759,1.759,0,0,0,.265.916c.145.241.277.373.229.566a.219.219,0,0,1-.12.181c-.108.06-.253-.048-.361-.12a.9.9,0,0,1-.337-.361c-.1-.229.048-.313.024-.747a.924.924,0,0,0-.217-.626.336.336,0,0,0-.253-.12c-.325.024-.289.446-.265.675a2.287,2.287,0,0,0,.072.4l.06.169c.072.193.169.373.084.482l-.084.06c-.072-.012-.108-.169-.145-.3a4.417,4.417,0,0,1-.084-.675,7.166,7.166,0,0,0-.1-.735c-.06-.337-.169-.891-.386-.916-.12-.012-.253.12-.3.241-.1.193.012.373.1.711a6.945,6.945,0,0,1,.108.759c.121.663.253.916.1,1.144-.012.012-.084.133-.169.12-.108-.024-.145-.337-.157-.47a4.7,4.7,0,0,1,.024-.783c.012-.349,0-.458-.072-.566-.012-.012-.145-.181-.3-.169s-.241.181-.361.4a2.043,2.043,0,0,0-.265.807c-.036.337.024.53-.1.626a.306.306,0,0,1-.229.024c-.157-.06-.193-.3-.241-.651a2.073,2.073,0,0,0-.12-.638s-.048-.217-.157-.265h-.072Z" transform="translate(82.692 9.183)" fill="#fff"/>
          <path id="Path_867" data-name="Path 867" d="M-82.22-8.782a.379.379,0,0,0,0,.325.475.475,0,0,0,.241.289.632.632,0,0,0,.446.012.5.5,0,0,0,.3-.2.436.436,0,0,0,.072-.277c0-.06,0-.217-.072-.241-.048-.024-.133.024-.169.084l-.06.133-.1-.048c-.06-.06-.024-.133-.072-.169l-.169.024c-.06.072-.012.181-.048.193l-.084-.072-.084-.133C-82.063-8.89-82.16-8.842-82.22-8.782Z" transform="translate(85.492 9.167)" fill="#fff"/>
          <path id="Path_868" data-name="Path 868" d="M-75.36-5.013c-.036-.072-.181-.084-.289-.072a.3.3,0,0,0-.157.108c-.06.072-.024.133-.1.241l-.084.084c-.06,0-.06-.108-.132-.193a.334.334,0,0,0-.373-.072,2.824,2.824,0,0,0-.229.313.511.511,0,0,1-.144.181.277.277,0,0,1-.289-.012c-.084-.072,0-.181-.072-.337a.361.361,0,0,0-.277-.181c-.108,0-.133.072-.181.072-.133-.036-.1-.446-.169-1.024a9.348,9.348,0,0,0-.157-.952c-.06-.181-.121-.349-.036-.446s.3.036.4-.072c.072-.084-.1-.253-.241-.663a1.66,1.66,0,0,0-.337-.747.26.26,0,0,0-.193-.1.49.49,0,0,0-.2.072.42.42,0,0,0-.2.2.332.332,0,0,0,.036.313,4.184,4.184,0,0,1,.133.867c.06.277,0,.157.169,1.12.048.277.072.47.12.867.108.663.132.9-.012,1a.438.438,0,0,1-.253,0c-.229-.1-.217-.325-.41-.434a.719.719,0,0,0-.578.108,1.132,1.132,0,0,0-.494.518.841.841,0,0,0,.072.879.673.673,0,0,0,.663.217c.193-.06.349-.241.41-.181l.012.072a1.515,1.515,0,0,1-.193.566,1.658,1.658,0,0,1-.614.542c-.386.229-.626.361-.9.3a.907.907,0,0,1-.614-.554c-.108-.289.036-.518-.157-.855-.072-.133-.108-.145-.132-.145-.121,0-.217.434-.241.638a1.633,1.633,0,0,0,.084.94,1.625,1.625,0,0,0,.518.638,1.43,1.43,0,0,0,.928.2,1.71,1.71,0,0,0,.94-.422,1.817,1.817,0,0,0,.711-1c.084-.41-.024-.747.229-.952.024-.012.108-.084.169-.048.108.048.012.434-.024.614a2.726,2.726,0,0,1-.41,1.048,2.2,2.2,0,0,1-.807.807,2.135,2.135,0,0,1-1.06.3A1.5,1.5,0,0,1-81.661-1a1.446,1.446,0,0,1-.217-.47c-.072-.277-.012-.494-.181-.783-.072-.12-.108-.12-.108-.12-.145.012-.217.638-.217.7a2.052,2.052,0,0,0,.06.928,1.54,1.54,0,0,0,.554.771A1.777,1.777,0,0,0-80.7.2,3.555,3.555,0,0,0-79.372-.11a2.519,2.519,0,0,0,.843-.59,2.273,2.273,0,0,0,.675-.964,2.09,2.09,0,0,0,.108-.747c.024-.482-.084-1.108.024-1.169l.072-.012.084.048a.249.249,0,0,0,.181.06.8.8,0,0,0,.3,0,1.829,1.829,0,0,0,.217-.108c.157-.1.181-.145.265-.169a.615.615,0,0,1,.277.024l.446.048a.536.536,0,0,0,.41-.3c.157-.3-.06-.626.084-.916Zm-3.9,1.169a.2.2,0,0,1-.3-.024.2.2,0,0,1-.06-.241.23.23,0,0,1,.277-.06.224.224,0,0,1,.1.181Z" transform="translate(83.824 9.217)" fill="#fff"/>
          <path id="Path_869" data-name="Path 869" d="M-81.851-8c.145.193.2.169.253.265.084.2-.12.41-.024.506h.169c.169-.072.157-.385.157-.482a.824.824,0,0,0-.169-.518c-.06-.072-.169-.2-.3-.181a.206.206,0,0,0-.181.193C-81.959-8.192-81.959-8.131-81.851-8Z" transform="translate(88.776 14.396)" fill="#fff"/>
          <path id="Path_870" data-name="Path 870" d="M-80.673-7.9c.012-.12.024-.265-.048-.313s-.181,0-.289.06c-.084.036-.349.181-.325.325a.221.221,0,0,0,.193.157c.084.012.121-.024.145,0,.06.036-.012.145.036.277a.272.272,0,0,0,.157.169c.108.048.217-.012.361-.06.446-.181.651-.108.711-.253a.24.24,0,0,0-.084-.265c-.108-.084-.3-.012-.578.084-.169.048-.253.1-.3.06Z" transform="translate(95.465 16.253)" fill="#fff"/>
          <path id="Path_871" data-name="Path 871" d="M-81.52-8.418a.824.824,0,0,0,.024-.157c-.012-.012-.024-.1-.072-.12-.072-.024-.193.084-.253.193a.454.454,0,0,0-.012.494.382.382,0,0,0,.277.2.433.433,0,0,0,.386-.1c.084-.072.144-.193.12-.241-.024-.024-.072,0-.2,0s-.193.012-.241-.036S-81.532-8.37-81.52-8.418Z" transform="translate(89.339 11.225)" fill="#fff"/>
          <path id="Path_872" data-name="Path 872" d="M-81.312-8.484c-.048-.036-.133-.072-.181-.036-.084.048-.024.265-.024.277a.558.558,0,0,0,.325.361.5.5,0,0,0,.422-.012.5.5,0,0,0,.193-.229c.06-.157.084-.4-.012-.446a.223.223,0,0,0-.241.084l-.06.133c-.024,0-.012-.133-.084-.181l-.12-.012c-.06.036-.048.157-.084.169Z" transform="translate(93.287 12.52)" fill="#fff"/>
          <path id="Path_873" data-name="Path 873" d="M-79.921-8.157c.072-.217.108-.229.12-.3a.389.389,0,0,0-.253-.385.449.449,0,0,0-.554.133.48.48,0,0,0-.036.518c.072.108.2.157.241.289a.349.349,0,0,1,0,.12l-.072.1a5.075,5.075,0,0,1-.735.6c-.325.193-.361.265-.626.434-.072.036-.193.157-.157.229.06.12.518.108.819-.012.373-.145.289-.349.843-.8.217-.157.482-.337.446-.518,0-.048-.072-.108-.072-.229Zm-.217,0c-.048.048-.157,0-.217-.072s-.072-.181-.012-.217.157-.012.217.036C-80.09-8.338-80.065-8.193-80.138-8.157Z" transform="translate(88.257 9.109)" fill="#fff"/>
          <path id="Path_874" data-name="Path 874" d="M-81.675-7.991c-.133.024-.145.626-.108,1.048.048.554.108,1.229.542,1.409a.65.65,0,0,0,.614-.048c.193-.169.084-.41.289-.916.072-.181.193-.422.253-.4.084.024-.133.506.06,1.012.024.048.241.614.675.687a1.3,1.3,0,0,0,.867-.349c.181-.145.3-.313.47-.289a.344.344,0,0,1,.181.12c.048.048.47.446.819.386a.746.746,0,0,0,.446-.349c.108-.181.108-.349.2-.361.072-.012.157.06.193.12.048.1.012.169.06.2.06.06.181.012.2,0,.229-.072.313-.337.361-.446.024-.1.084-.265.024-.313s-.132,0-.313.048a1,1,0,0,1-.313.048c-.108-.024-.181-.12-.277-.3-.265-.482-.41-.759-.3-.964.012-.024.1-.157.193-.157l.1.036a.843.843,0,0,0-.3-.771c-.072-.072-.253-.241-.446-.193-.253.072-.325.47-.337.687a1.337,1.337,0,0,0,.265.711,3.208,3.208,0,0,1,.229.434c.06.193.1.566-.1.687a.419.419,0,0,1-.422-.06c-.2-.133-.241-.373-.3-.759a7.484,7.484,0,0,1-.048-.819,2.436,2.436,0,0,0-.084-.663c-.048-.157-.108-.385-.229-.4-.145-.012-.277.241-.3.3a.893.893,0,0,0-.108.458c.012.241.108.289.181.59a2.3,2.3,0,0,1,.036.518,1.072,1.072,0,0,1-.277.747.553.553,0,0,1-.434.133.565.565,0,0,1-.361-.313c-.108-.2-.06-.337-.048-.819.024-.723-.06-.831-.12-.867a.417.417,0,0,0-.386.012c-.518.217-.651,1.108-.675,1.265l-.036.193c-.06.253-.1.434-.193.458s-.193-.133-.241-.193a1.313,1.313,0,0,1-.2-.651c-.048-.4,0-.554-.145-.771C-81.555-7.907-81.615-8-81.675-7.991Z" transform="translate(90.386 8.919)" fill="#fff"/>
          <path id="Path_875" data-name="Path 875" d="M-81.383-8.908c-.181.048-.289.337-.313.385a.826.826,0,0,0-.048.373c.012.1.024.217.12.253s.229-.036.289-.1.121-.145.084-.2-.12-.012-.169-.072c-.072-.072-.024-.2-.012-.229.036-.12.12-.133.157-.277.012-.084,0-.108-.012-.12Z" transform="translate(90.974 8.908)" fill="#fff"/>
          <path id="Path_876" data-name="Path 876" d="M-81.391-8.885c-.036.024-.157.12-.193.434-.024.193,0,.181-.012.482a.273.273,0,0,0,.1.265c.048.024.144-.1.169-.12a1.192,1.192,0,0,0,.181-.819c0-.108,0-.2-.06-.229S-81.355-8.921-81.391-8.885Z" transform="translate(92.644 8.957)" fill="#fff"/>
          <path id="Path_877" data-name="Path 877" d="M-77.18-2.8a10.174,10.174,0,0,0-.855-1.542c-.313-.494-.59-.976-.9-1.446-.036-.494-.084-.952-.12-1.193.036-.108.084-.133.084-.133h.108c.072-.036.024-.265.024-.265a3.646,3.646,0,0,0-.7-1.1c-.06-.072-.133-.217-.241-.193-.1,0-.169.265-.193.446a1.313,1.313,0,0,0,.036.446,3.649,3.649,0,0,0-.3-.422,3.162,3.162,0,0,0-.506-.494c-.3-.229-.374-.229-.41-.2-.084.036-.108.145-.145.3a.977.977,0,0,0,0,.59.439.439,0,0,0,.132.193c.639.771,1.181,1.506,1.626,2.168.157,1.723.217,3.9.193,4.457-.012.217-.048.711.108.747.12.036.325-.265.41-.422a1.78,1.78,0,0,0,.181-1.253s-.084-1.132-.181-2.325c.169.277.3.554.434.8A13.19,13.19,0,0,0-77.2-1.524C-77.035-1.476-76.987-2.259-77.18-2.8Zm-2.976-4.771-.012-.06c.012-.048.217.036.253,0l.012-.036a.853.853,0,0,0,.108.265c.012.133.048.277.084.458C-79.842-7.15-80.011-7.367-80.156-7.571Z" transform="translate(95.335 8.921)" fill="#fff"/>
          <path id="Path_878" data-name="Path 878" d="M-81.12-8.614c-.012.145.133.181.277.47a1.572,1.572,0,0,1,.133.41c.036.241-.012.386.036.41s.181-.169.253-.361a1.068,1.068,0,0,0-.1-.916c-.06-.1-.193-.3-.361-.277A.3.3,0,0,0-81.12-8.614Z" transform="translate(97.823 9.204)" fill="#fff"/>
          <path id="Path_879" data-name="Path 879" d="M-80.82-8.515c-.072-.06-.048-.133-.084-.157s-.145.06-.193.157a.394.394,0,0,0,.072.41.569.569,0,0,0,.482.157.571.571,0,0,0,.4-.229.386.386,0,0,0,.024-.422l-.133-.06c-.06.036-.024.169-.084.193l-.12-.1-.06-.145c-.048-.012-.12.048-.157.12l-.048.108Z" transform="translate(97.762 11.105)" fill="#fff"/>
          <path id="Path_880" data-name="Path 880" d="M-80.255-8.109c-.084-.036-.072-.12-.133-.169a.282.282,0,0,0-.325.06.348.348,0,0,0-.072.3c0,.084.036.217.494.626.313.277.4.3.446.277s.072-.12.1-.229c.06-.337-.084-.494.024-.614.06-.072.157-.036.229-.157a.429.429,0,0,0,.072-.157.474.474,0,0,0-.193-.494.325.325,0,0,0-.361.06c-.109.133.084.4-.024.482l-.157.024Z" transform="translate(101.39 11.313)" fill="#fff"/>
          <path id="Path_881" data-name="Path 881" d="M-80-7.818c.012-.1.1-.12.1-.193,0-.1-.181-.229-.373-.2-.12.012-.265.084-.265.169s.241.1.289.253a.3.3,0,0,1-.024.193c-.084.193-.277.2-.289.325a.243.243,0,0,0,.133.193c.133.048.2-.1.542-.229.181-.072.277-.084.3-.169a.179.179,0,0,0-.1-.181c-.1-.072-.217.024-.289-.036Z" transform="translate(103.853 16.528)" fill="#fff"/>
          <path id="Path_882" data-name="Path 882" d="M-79.636-3.082s-.1-.771-.349-2.6c-.072-.542-.181-1.084-.229-1.626a.58.58,0,0,1,.144,0l.229-.036c.072-.06-.048-.2-.084-.265l-.193-.349-.3-.566c-.048-.084-.133-.373-.253-.361s-.217.554-.241.928A4.055,4.055,0,0,0-80.8-6.624,26.087,26.087,0,0,1-80.154-2c.024.4-.072.988.072,1.024.108.024.3-.289.4-.506A2.714,2.714,0,0,0-79.636-3.082Z" transform="translate(99.926 9.118)" fill="#fff"/>
          <path id="Path_883" data-name="Path 883" d="M-79.4-8.824a1.662,1.662,0,0,0-.265.819c0,.4.1.47.157,1.084l.024.337c.084,1.976.253,2.795.3,3.578A4.687,4.687,0,0,1-79.1-1.789a.953.953,0,0,1-.289.506A8.386,8.386,0,0,1-80.94-.151c-.06.036-.181.036-.2.108s.108.217.217.277A1.126,1.126,0,0,0-80,.2,2.358,2.358,0,0,0-78.88-.994a3.486,3.486,0,0,0,.3-1.181,12.347,12.347,0,0,0-.289-3.951s-.313-1.181-.108-1.253c.024-.012.072.024.121-.012.084-.036.1-.157.1-.193a.628.628,0,0,0-.12-.422c-.289-.53-.337-.891-.458-.879Z" transform="translate(97.485 9.162)" fill="#fff"/>
          <g id="Group_659" data-name="Group 659" transform="translate(19.118 0.145)">
            <path id="Path_884" data-name="Path 884" d="M-79.347-7.918c.145-.145.145-.663,0-.626-.036.012-1.108.711-1.229.831s-.193.193-.193.325v.337A10.513,10.513,0,0,0-79.347-7.918Z" transform="translate(82.481 12.76)" fill="#fff"/>
            <path id="Path_885" data-name="Path 885" d="M-80.651-8.414c-.072.072-.012.47.036.578a3.849,3.849,0,0,1,.1.783c0,.06.072.289.169.193a1.266,1.266,0,0,0,.277-.6,4.516,4.516,0,0,0-.277-.952A.252.252,0,0,0-80.651-8.414Z" transform="translate(83.4 13.666)" fill="#fff"/>
            <path id="Path_886" data-name="Path 886" d="M-80.155-8.094c.012.1.036.253.048.458l.012.422c.06.012.2-.229.253-.494a1.312,1.312,0,0,0-.1-.711c-.06-.2-.12-.361-.253-.385a.24.24,0,0,0-.241.072c-.084.12,0,.3.036.373A.657.657,0,0,0-80.155-8.094Z" transform="translate(85.795 9.817)" fill="#fff"/>
            <path id="Path_887" data-name="Path 887" d="M-80.365-8.255Z" transform="translate(86.933 15.977)" fill="#fff"/>
            <path id="Path_888" data-name="Path 888" d="M-75.764-1.114c.181-.253.3-.3.361-.578a9.1,9.1,0,0,0,.036-1.084c.265.422.518.819.723,1.181.265.361.3.422.3.422a1.894,1.894,0,0,0-.06-1.277,12.312,12.312,0,0,0-.988-1.494,11.4,11.4,0,0,0-.193-1.94c-.265-1.132-.3-1.277-.12-1.277s-.241-1.144-.41-1.434-.361-.193-.422-.133a.369.369,0,0,0-.157.41c.108.626.217,1.265.313,1.927.06.434.108.879.156,1.3l-.711-.976c-.048-.687-.084-1.193-.084-1.217,0-.048.193-.084.193-.157a2.079,2.079,0,0,0-.361-.711c-.337-.349-.277-.675-.4-.663s-.229.229-.217.3c.024.349.06.843.1,1.337a3.944,3.944,0,0,1-.337-.518c0-.12-.012-.12.072-.12A.228.228,0,0,0-77.8-7.9c.036-.036-1.169-1.337-1.084-.916,0,0-.277.843.072,1.277.133.157.614.771,1.217,1.59q.036.253.072.4a19.155,19.155,0,0,1,.145,3.626c-.012.145-.157.482-.361.506-.157.024-.3-.133-.41-.253-.289-.313-.313-.518-.506-.578A.4.4,0,0,0-79-2.162a1.432,1.432,0,0,0-.446.771c-.193.506-.2.759-.385.916a.472.472,0,0,1-.373.072c-.337-.06-.446-.711-.494-.9a2.156,2.156,0,0,1-.024-.747,2.227,2.227,0,0,0,.036,1.819c.241.41.723.735.976.626s.4-.518.53-1.229a.493.493,0,0,1,.458-.4c.337-.024.446.566.891.687a1.138,1.138,0,0,0,.976-.41c.2-.2.325-.663.12-2.819-.036-.373-.072-.759-.1-1.144.241.337.494.687.735,1.048.084.988.133,1.952.157,2.879C-75.945-.994-75.945-.873-75.764-1.114Z" transform="translate(80.91 8.896)" fill="#fff"/>
            <path id="Path_889" data-name="Path 889" d="M-78.58-7.442c.1-.1.434.145.385-.1s-.687-1.4-.976-1.349c-.108.012-.2.361-.2.506s.084.94.157,1.518.59,5.06.47,5.469a2.183,2.183,0,0,1-.627.867c-.2.2-1.12.566-1.12.807s.482.217.94.06A1.7,1.7,0,0,0-78.315-.889a22.106,22.106,0,0,0,.06-3.867A23.142,23.142,0,0,1-78.58-7.442Z" transform="translate(85.497 8.972)" fill="#fff"/>
          </g>
          <path id="Path_890" data-name="Path 890" d="M-71.663-6.171a13.271,13.271,0,0,1-2.4-.072c0-.012.157-.012.434-.084a2.154,2.154,0,0,0,.94-.482,1.186,1.186,0,0,0,.506-.807.946.946,0,0,0-.482-.891.9.9,0,0,0-.855.012,1.213,1.213,0,0,0-.422.831c-.084.349,0,.41-.084.554-.229.3-.735.012-1.349.3a1.677,1.677,0,0,0-.711.675c-.012-.145-.048-.313-.084-.53a3.208,3.208,0,0,0-.554-1.687c-.1-.084-.277-.3-.422-.253-.169.06-.169.47-.169.554A2.879,2.879,0,0,0-77-6.942a3.159,3.159,0,0,1,.253,1.024,2.212,2.212,0,0,1-.4,1.277,2.53,2.53,0,0,1-1.048.9.769.769,0,0,1-.759.072.425.425,0,0,1-.2-.337l.06-.048a3.766,3.766,0,0,0,.843-.663,2.307,2.307,0,0,0,.771-1.325A1.742,1.742,0,0,0-77.7-7.183l-.072-.145c.024-.06.169.036.2,0,.072-.06-.024-.3-.145-.506-.133-.157-.265-.361-.518-.373a.455.455,0,0,0-.434.181c-.157.253.06.59.1.663.12.181.193.157.313.337a.993.993,0,0,1,.181.59,1.117,1.117,0,0,1-.108.518,2.922,2.922,0,0,1-1.072,1.1c-.012-.542.06-.831,0-.843-.084,0-.3.446-.434.916l-.072.241c-.458.313-.458.277-.9.566-.337.2-1.494.928-1.421,1.072s1.6-.446,1.674-.482c.229-.108.422-.2.6-.277a.952.952,0,0,0,.144.361,1.358,1.358,0,0,0,1.108.554A1.841,1.841,0,0,0-77.529-3.2a3.718,3.718,0,0,0,1.12-1.277l.06-.1a.929.929,0,0,0,.12.349,1.156,1.156,0,0,0,.361.41,3.257,3.257,0,0,0,1,.614c.253.084.7.265.952.108a.372.372,0,0,0,.157-.181.346.346,0,0,0,.036-.265c-.048-.181-.289-.145-.458-.361a.468.468,0,0,1-.145-.41c.048-.145.2-.217.458-.289a12.08,12.08,0,0,1,1.566-.3c.313-.06.518-.1.6-.253s-.036-.229.048-.434a2.479,2.479,0,0,1,.253-.446l.06-.108C-71.373-6.207-71.614-6.171-71.663-6.171Zm-1.506-1.554c.108.036.133.12.169.253a.12.12,0,0,1,.012.108c-.036.048-.157.012-.229-.024-.133-.072-.241-.229-.2-.3A.2.2,0,0,1-73.168-7.725Zm-1.783,2.951c-.108.2.012.373-.108.47A.29.29,0,0,1-75.3-4.34a.96.96,0,0,1-.6-.759c0-.048-.024-.386.157-.482.108-.072.2.036.482.1.4.072.59-.133.771.036a.258.258,0,0,1,.133.229C-74.4-5-74.831-5.063-74.951-4.774Z" transform="translate(87.274 12.183)" fill="#fff"/>
        </g>
      </g>
    </g>
  </g>
</svg>
