<svg id="vietnamise" xmlns="http://www.w3.org/2000/svg" width="40" height="40" viewBox="0 0 40 40">
  <path id="Path_3501" data-name="Path 3501" d="M10,0H30A10,10,0,0,1,40,10V30A10,10,0,0,1,30,40H10A10,10,0,0,1,0,30V10A10,10,0,0,1,10,0Z" transform="translate(0)" fill="#4586ff" opacity="0.45"/>
  <g id="Group_1772" data-name="Group 1772" transform="translate(2.018 2.018)">
    <g id="Group_633" data-name="Group 633" transform="translate(5.024 7.512)">
      <path id="Path_517" data-name="Path 517" d="M-59.551,99.235H-75.363a6.9,6.9,0,0,0-7.12,6.638v14.733a6.9,6.9,0,0,0,7.12,6.638h15.812a6.893,6.893,0,0,0,7.108-6.638V105.873a6.893,6.893,0,0,0-7.108-6.638Z" transform="translate(82.483 -99.235)" fill="gray"/>
    </g>
    <g id="Group_634" data-name="Group 634">
      <path id="Path_518" data-name="Path 518" d="M-47.475,105.679v21.243a7.319,7.319,0,0,1-.5,2.612,7.094,7.094,0,0,1-6.6,4.461H-75.815a7.082,7.082,0,0,1-6.6-4.461,7.062,7.062,0,0,1-.489-2.612V105.679a6.972,6.972,0,0,1,.489-2.612,7.11,7.11,0,0,1,6.6-4.485h21.243a7.1,7.1,0,0,1,6.6,4.485A7.22,7.22,0,0,1-47.475,105.679Z" transform="translate(82.9 -98.582)" fill="#d9251d"/>
      <path id="Path_519" data-name="Path 519" d="M-72.252,99.263l2.363,7.265h7.646l-6.186,4.489,2.363,7.265-6.185-4.491-6.185,4.491,2.362-7.265-6.185-4.489h7.646Z" transform="translate(89.959 -91.06)" fill="#fefe1e"/>
    </g>
  </g>
</svg>
