<svg id="eye-close" xmlns="http://www.w3.org/2000/svg" width="20.078" height="15.058" viewBox="0 0 20.078 15.058">
  <path id="Path_3414" data-name="Path 3414" d="M580.2,7.372a12.054,12.054,0,0,1,7.525-5.814,10.341,10.341,0,0,1,6.747.576.264.264,0,0,0,.35-.069c.614-.624,1.236-1.241,1.855-1.86a.61.61,0,0,1,.644-.174.594.594,0,0,1,.43.465.654.654,0,0,1-.224.633q-1.272,1.265-2.538,2.536-5.559,5.559-11.117,11.12a.7.7,0,0,1-.64.263.6.6,0,0,1-.49-.427.6.6,0,0,1,.166-.646q.782-.785,1.567-1.566c.051-.051.111-.092.189-.156A13.2,13.2,0,0,1,580.2,7.686Zm13.475-4.193a.625.625,0,0,0-.071-.038,9.138,9.138,0,0,0-6.422-.113,11.272,11.272,0,0,0-5.544,4.388c-.079.113-.03.174.026.255a12.245,12.245,0,0,0,2.782,2.874c.365.27.752.509,1.11.75l1.607-1.6a3.748,3.748,0,0,1,.358-4.76,3.674,3.674,0,0,1,2.07-1.109,3.732,3.732,0,0,1,2.814.628l1.27-1.271M588.09,8.763l3.384-3.383a2.469,2.469,0,0,0-3.384,3.383" transform="translate(-580.203 0)" fill="#acacac"/>
  <path id="Path_3415" data-name="Path 3415" d="M725.521,72.208a12.136,12.136,0,0,1-7.37,5.778,10.4,10.4,0,0,1-5.7-.1.763.763,0,0,1-.094-.046c.332-.33.652-.652.98-.967a.21.21,0,0,1,.163-.024,9.46,9.46,0,0,0,8.309-2.172,12.279,12.279,0,0,0,2.263-2.485.2.2,0,0,0,0-.272,12.746,12.746,0,0,0-2.634-2.775c-.057-.044-.113-.088-.169-.133a.046.046,0,0,1-.013-.02l.9-.906a13.021,13.021,0,0,1,3.365,3.812Z" transform="translate(-705.443 -64.522)" fill="#acacac"/>
  <path id="Path_3416" data-name="Path 3416" d="M753.7,130.361c.381-.379.738-.738,1.1-1.091a.329.329,0,0,1,.181-.057,2.493,2.493,0,0,0,2.159-2.158.329.329,0,0,1,.057-.181c.353-.364.713-.722,1.078-1.088a3.645,3.645,0,0,1-.788,3.441,3.739,3.739,0,0,1-3.789,1.135" transform="translate(-744.629 -119.208)" fill="#acacac"/>
</svg>
