<svg xmlns="http://www.w3.org/2000/svg" xmlns:xlink="http://www.w3.org/1999/xlink" width="36" height="36" viewBox="0 0 36 36">
  <defs>
    <filter id="Path_3097" x="0" y="0" width="36" height="36" filterUnits="userSpaceOnUse">
      <feOffset dy="3" input="SourceAlpha"/>
      <feGaussianBlur stdDeviation="3" result="blur"/>
      <feFlood flood-opacity="0.161"/>
      <feComposite operator="in" in2="blur"/>
      <feComposite in="SourceGraphic"/>
    </filter>
    <filter id="Path_3097-2" x="0" y="0" width="36" height="36" filterUnits="userSpaceOnUse">
      <feOffset dy="3" input="SourceAlpha"/>
      <feGaussianBlur stdDeviation="3" result="blur-2"/>
      <feFlood flood-opacity="0.161" result="color"/>
      <feComposite operator="out" in="SourceGraphic" in2="blur-2"/>
      <feComposite operator="in" in="color"/>
      <feComposite operator="in" in2="SourceGraphic"/>
    </filter>
    <linearGradient id="linear-gradient" x1="0.5" x2="0.5" y2="1" gradientUnits="objectBoundingBox">
      <stop offset="0" stop-color="#5995ff"/>
      <stop offset="1" stop-color="#4586ff"/>
    </linearGradient>
    <filter id="Path_3460" x="1" y="1" width="34" height="34" filterUnits="userSpaceOnUse">
      <feOffset dy="3" input="SourceAlpha"/>
      <feGaussianBlur stdDeviation="3" result="blur-3"/>
      <feFlood flood-opacity="0.161"/>
      <feComposite operator="in" in2="blur-3"/>
      <feComposite in="SourceGraphic"/>
    </filter>
  </defs>
  <g id="select_newletter" data-name="select newletter" transform="translate(9 6)">
    <g data-type="innerShadowGroup">
      <g transform="matrix(1, 0, 0, 1, -9, -6)" filter="url(#Path_3097)">
        <path id="Path_3097-3" data-name="Path 3097" d="M2,0H16a2,2,0,0,1,2,2V16a2,2,0,0,1-2,2H2a2,2,0,0,1-2-2V2A2,2,0,0,1,2,0Z" transform="translate(9 6)" fill="#cecece"/>
      </g>
      <g transform="matrix(1, 0, 0, 1, -9, -6)" filter="url(#Path_3097-2)">
        <path id="Path_3097-4" data-name="Path 3097" d="M2,0H16a2,2,0,0,1,2,2V16a2,2,0,0,1-2,2H2a2,2,0,0,1-2-2V2A2,2,0,0,1,2,0Z" transform="translate(9 6)" fill="#fff"/>
      </g>
    </g>
    <g transform="matrix(1, 0, 0, 1, -9, -6)" filter="url(#Path_3460)">
      <path id="Path_3460-2" data-name="Path 3460" d="M1,0H15a1,1,0,0,1,1,1V15a1,1,0,0,1-1,1H1a1,1,0,0,1-1-1V1A1,1,0,0,1,1,0Z" transform="translate(10 7)" fill="url(#linear-gradient)"/>
    </g>
  </g>
</svg>
