<svg xmlns="http://www.w3.org/2000/svg" xmlns:xlink="http://www.w3.org/1999/xlink" width="36" height="36" viewBox="0 0 36 36">
  <defs>
    <linearGradient id="linear-gradient" x1="0.5" x2="0.5" y2="1" gradientUnits="objectBoundingBox">
      <stop offset="0" stop-color="#dedede"/>
      <stop offset="1" stop-color="#a4bdeb"/>
    </linearGradient>
    <filter id="Path_3457" x="0" y="0" width="36" height="36" filterUnits="userSpaceOnUse">
      <feOffset dy="3" input="SourceAlpha"/>
      <feGaussianBlur stdDeviation="3" result="blur"/>
      <feFlood flood-opacity="0.161"/>
      <feComposite operator="in" in2="blur"/>
    </filter>
    <filter id="Path_3457-2" x="0" y="0" width="36" height="36" filterUnits="userSpaceOnUse">
      <feOffset dy="3" input="SourceAlpha"/>
      <feGaussianBlur stdDeviation="3" result="blur-2"/>
      <feFlood flood-opacity="0.161" result="color"/>
      <feComposite operator="out" in="SourceGraphic" in2="blur-2"/>
      <feComposite operator="in" in="color"/>
      <feComposite operator="in" in2="SourceGraphic"/>
    </filter>
  </defs>
  <g data-type="innerShadowGroup">
    <g transform="matrix(1, 0, 0, 1, 0, 0)" filter="url(#Path_3457)">
      <g id="Path_3457-3" data-name="Path 3457" transform="translate(9 6)" fill="url(#linear-gradient)">
        <path d="M 16 17.5 L 2 17.5 C 1.172899961471558 17.5 0.5 16.82710075378418 0.5 16 L 0.5 2 C 0.5 1.172899961471558 1.172899961471558 0.5 2 0.5 L 16 0.5 C 16.82710075378418 0.5 17.5 1.172899961471558 17.5 2 L 17.5 16 C 17.5 16.82710075378418 16.82710075378418 17.5 16 17.5 Z" stroke="none"/>
        <path d="M 2 1 C 1.448600769042969 1 1 1.448600769042969 1 2 L 1 16 C 1 16.55139923095703 1.448600769042969 17 2 17 L 16 17 C 16.55139923095703 17 17 16.55139923095703 17 16 L 17 2 C 17 1.448600769042969 16.55139923095703 1 16 1 L 2 1 M 2 0 L 16 0 C 17.10457038879395 0 18 0.8954296112060547 18 2 L 18 16 C 18 17.10457038879395 17.10457038879395 18 16 18 L 2 18 C 0.8954296112060547 18 0 17.10457038879395 0 16 L 0 2 C 0 0.8954296112060547 0.8954296112060547 0 2 0 Z" stroke="none" fill="#959595"/>
      </g>
    </g>
    <g id="Path_3457-4" data-name="Path 3457" transform="translate(9 6)" fill="url(#linear-gradient)">
      <path d="M 16 17.5 L 2 17.5 C 1.172899961471558 17.5 0.5 16.82710075378418 0.5 16 L 0.5 2 C 0.5 1.172899961471558 1.172899961471558 0.5 2 0.5 L 16 0.5 C 16.82710075378418 0.5 17.5 1.172899961471558 17.5 2 L 17.5 16 C 17.5 16.82710075378418 16.82710075378418 17.5 16 17.5 Z" stroke="none"/>
      <path d="M 2 1 C 1.448600769042969 1 1 1.448600769042969 1 2 L 1 16 C 1 16.55139923095703 1.448600769042969 17 2 17 L 16 17 C 16.55139923095703 17 17 16.55139923095703 17 16 L 17 2 C 17 1.448600769042969 16.55139923095703 1 16 1 L 2 1 M 2 0 L 16 0 C 17.10457038879395 0 18 0.8954296112060547 18 2 L 18 16 C 18 17.10457038879395 17.10457038879395 18 16 18 L 2 18 C 0.8954296112060547 18 0 17.10457038879395 0 16 L 0 2 C 0 0.8954296112060547 0.8954296112060547 0 2 0 Z" stroke="none"/>
    </g>
    <g transform="matrix(1, 0, 0, 1, 0, 0)" filter="url(#Path_3457-2)">
      <g id="Path_3457-5" data-name="Path 3457" transform="translate(9 6)" fill="#fff">
        <path d="M 16 17.5 L 2 17.5 C 1.172899961471558 17.5 0.5 16.82710075378418 0.5 16 L 0.5 2 C 0.5 1.172899961471558 1.172899961471558 0.5 2 0.5 L 16 0.5 C 16.82710075378418 0.5 17.5 1.172899961471558 17.5 2 L 17.5 16 C 17.5 16.82710075378418 16.82710075378418 17.5 16 17.5 Z" stroke="none"/>
        <path d="M 2 1 C 1.448600769042969 1 1 1.448600769042969 1 2 L 1 16 C 1 16.55139923095703 1.448600769042969 17 2 17 L 16 17 C 16.55139923095703 17 17 16.55139923095703 17 16 L 17 2 C 17 1.448600769042969 16.55139923095703 1 16 1 L 2 1 M 2 0 L 16 0 C 17.10457038879395 0 18 0.8954296112060547 18 2 L 18 16 C 18 17.10457038879395 17.10457038879395 18 16 18 L 2 18 C 0.8954296112060547 18 0 17.10457038879395 0 16 L 0 2 C 0 0.8954296112060547 0.8954296112060547 0 2 0 Z" stroke="none"/>
      </g>
    </g>
    <g id="Path_3457-6" data-name="Path 3457" transform="translate(9 6)" fill="none">
      <path d="M 16 17.5 L 2 17.5 C 1.172899961471558 17.5 0.5 16.82710075378418 0.5 16 L 0.5 2 C 0.5 1.172899961471558 1.172899961471558 0.5 2 0.5 L 16 0.5 C 16.82710075378418 0.5 17.5 1.172899961471558 17.5 2 L 17.5 16 C 17.5 16.82710075378418 16.82710075378418 17.5 16 17.5 Z" stroke="none"/>
      <path d="M 2 1 C 1.448600769042969 1 1 1.448600769042969 1 2 L 1 16 C 1 16.55139923095703 1.448600769042969 17 2 17 L 16 17 C 16.55139923095703 17 17 16.55139923095703 17 16 L 17 2 C 17 1.448600769042969 16.55139923095703 1 16 1 L 2 1 M 2 0 L 16 0 C 17.10457038879395 0 18 0.8954296112060547 18 2 L 18 16 C 18 17.10457038879395 17.10457038879395 18 16 18 L 2 18 C 0.8954296112060547 18 0 17.10457038879395 0 16 L 0 2 C 0 0.8954296112060547 0.8954296112060547 0 2 0 Z" stroke="none" fill="#959595"/>
    </g>
  </g>
</svg>
